<?xml version="1.0" encoding="UTF-8" standalone="no"?>
<!-- Created with Inkscape (http://www.inkscape.org/) -->

<svg
   xmlns:dc="http://purl.org/dc/elements/1.1/"
   xmlns:cc="http://creativecommons.org/ns#"
   xmlns:rdf="http://www.w3.org/1999/02/22-rdf-syntax-ns#"
   xmlns:svg="http://www.w3.org/2000/svg"
   xmlns="http://www.w3.org/2000/svg"
   xmlns:xlink="http://www.w3.org/1999/xlink"
   xmlns:sodipodi="http://sodipodi.sourceforge.net/DTD/sodipodi-0.dtd"
   xmlns:inkscape="http://www.inkscape.org/namespaces/inkscape"
   width="512"
   height="512"
   id="svg4164"
   version="1.1"
   inkscape:version="0.48.4 r9939"
   sodipodi:docname="arsnova-color.svg">
  <defs
     id="defs4166">
    <linearGradient
       id="linearGradient4264">
      <stop
         style="stop-color:#afe060;stop-opacity:1;"
         offset="0"
         id="stop4266" />
      <stop
         id="stop4268"
         offset="0.33832109"
         style="stop-color:#80ba24;stop-opacity:1;" />
      <stop
         style="stop-color:#5c861a;stop-opacity:1;"
         offset="1"
         id="stop4270" />
    </linearGradient>
    <linearGradient
       id="linearGradient4246">
      <stop
         style="stop-color:#afe060;stop-opacity:1;"
         offset="0"
         id="stop4248" />
      <stop
         id="stop4250"
         offset="0.51357144"
         style="stop-color:#80ba24;stop-opacity:1;" />
      <stop
         style="stop-color:#5c861a;stop-opacity:1;"
         offset="1"
         id="stop4252" />
    </linearGradient>
    <linearGradient
       inkscape:collect="always"
       xlink:href="#linearGradientWhite"
       id="linearGradient3144"
       gradientUnits="userSpaceOnUse"
       gradientTransform="matrix(1.44,0,0,1.44,-295.78984,-251.1368)"
       x1="382.62448"
       y1="695.95337"
       x2="382.03867"
       y2="723.81677" />
    <linearGradient
       id="linearGradientWhite">
      <stop
         style="stop-color:#ffffff;stop-opacity:0.52903223;"
         offset="0"
         id="stop4417" />
      <stop
         style="stop-color:#ffffff;stop-opacity:0;"
         offset="1"
         id="stop4419" />
    </linearGradient>
    <linearGradient
       inkscape:collect="always"
       xlink:href="#linearGradientGreenBody"
       id="linearGradient3147"
       gradientUnits="userSpaceOnUse"
       gradientTransform="matrix(1.44,0,0,1.44,-295.78984,-251.1368)"
       x1="382.62448"
       y1="695.95337"
       x2="382.74017"
       y2="880.25012" />
    <linearGradient
       id="linearGradientGreenBody">
      <stop
         id="stop3855"
         offset="0"
         style="stop-color:#afe060;stop-opacity:1;" />
      <stop
         style="stop-color:#80ba24;stop-opacity:1;"
         offset="0.32912764"
         id="stop3857" />
      <stop
         id="stop3859"
         offset="1"
         style="stop-color:#5c861a;stop-opacity:1;" />
    </linearGradient>
    <linearGradient
       inkscape:collect="always"
       xlink:href="#linearGradientWhite"
       id="linearGradient4009"
       gradientUnits="userSpaceOnUse"
       x1="336.44302"
       y1="171.18916"
       x2="336.45895"
       y2="200.10072" />
    <linearGradient
       id="linearGradient4031">
      <stop
         style="stop-color:#ffffff;stop-opacity:0.52903223;"
         offset="0"
         id="stop4033" />
      <stop
         style="stop-color:#ffffff;stop-opacity:0;"
         offset="1"
         id="stop4035" />
    </linearGradient>
    <linearGradient
       inkscape:collect="always"
       xlink:href="#linearGradientGreenBody"
       id="linearGradient3149"
       gradientUnits="userSpaceOnUse"
       x1="336.44302"
       y1="171.18916"
       x2="338.40906"
       y2="257.92386" />
    <linearGradient
       inkscape:collect="always"
       xlink:href="#linearGradientGreenBody"
       id="linearGradient3227"
       gradientUnits="userSpaceOnUse"
       gradientTransform="matrix(-0.69180548,0,0,1.0293289,476.82249,10.411423)"
       x1="162.55586"
       y1="643.66162"
       x2="203.08711"
       y2="643.66162" />
    <linearGradient
       inkscape:collect="always"
       xlink:href="#linearGradientGreenBorder"
       id="linearGradient3229"
       gradientUnits="userSpaceOnUse"
       gradientTransform="matrix(-0.69180548,0,0,1.0293289,476.82249,10.411423)"
       x1="162.55586"
       y1="643.66162"
       x2="203.08711"
       y2="643.66162" />
    <linearGradient
       id="linearGradientGreenBorder">
      <stop
         style="stop-color:#afe060;stop-opacity:1;"
         offset="0"
         id="stop3837" />
      <stop
         id="stop3843"
         offset="0.21807227"
         style="stop-color:#80ba24;stop-opacity:1;" />
      <stop
         style="stop-color:#5c861a;stop-opacity:1;"
         offset="1"
         id="stop3839" />
    </linearGradient>
    <linearGradient
       inkscape:collect="always"
       xlink:href="#linearGradientGreenBody"
       id="linearGradient3232"
       gradientUnits="userSpaceOnUse"
       gradientTransform="matrix(-1.0552086,0,0,1.2346833,579.26041,-121.76733)"
       x1="162.55586"
       y1="643.66162"
       x2="203.08711"
       y2="643.66162" />
    <linearGradient
       inkscape:collect="always"
       xlink:href="#linearGradientGreenBorder"
       id="linearGradient3234"
       gradientUnits="userSpaceOnUse"
       gradientTransform="matrix(-1.0552086,0,0,1.2346833,579.26041,-121.76733)"
       x1="162.55586"
       y1="643.66162"
       x2="203.08711"
       y2="643.66162" />
    <linearGradient
       inkscape:collect="always"
       xlink:href="#linearGradientGreenBody"
       id="linearGradient3237"
       gradientUnits="userSpaceOnUse"
       gradientTransform="matrix(-1.44,0,0,1.44,685.22604,-253.92179)"
       x1="162.55586"
       y1="643.66162"
       x2="203.08711"
       y2="643.66162" />
    <linearGradient
       inkscape:collect="always"
       xlink:href="#linearGradientGreenBorder"
       id="linearGradient3239"
       gradientUnits="userSpaceOnUse"
       gradientTransform="matrix(-1.44,0,0,1.44,685.22604,-253.92179)"
       x1="162.55586"
       y1="643.66162"
       x2="203.08711"
       y2="643.66162" />
    <linearGradient
       inkscape:collect="always"
       xlink:href="#linearGradientGreenBody"
       id="linearGradient3200"
       gradientUnits="userSpaceOnUse"
       gradientTransform="matrix(0.69180548,0,0,1.0293289,35.177512,10.411423)"
       x1="162.55586"
       y1="643.66162"
       x2="203.08711"
       y2="643.66162" />
    <linearGradient
       inkscape:collect="always"
       xlink:href="#linearGradientGreenBorder"
       id="linearGradient3202"
       gradientUnits="userSpaceOnUse"
       gradientTransform="matrix(0.69180548,0,0,1.0293289,35.177512,10.411423)"
       x1="162.55586"
       y1="643.66162"
       x2="203.08711"
       y2="643.66162" />
    <linearGradient
       inkscape:collect="always"
       xlink:href="#linearGradientGreenBody"
       id="linearGradient3205"
       gradientUnits="userSpaceOnUse"
       gradientTransform="matrix(1.0552086,0,0,1.2346833,-67.260409,-121.76733)"
       x1="162.55586"
       y1="643.66162"
       x2="203.08711"
       y2="643.66162" />
    <linearGradient
       inkscape:collect="always"
       xlink:href="#linearGradientGreenBorder"
       id="linearGradient3207"
       gradientUnits="userSpaceOnUse"
       gradientTransform="matrix(1.0552086,0,0,1.2346833,-67.260409,-121.76733)"
       x1="162.55586"
       y1="643.66162"
       x2="203.08711"
       y2="643.66162" />
    <linearGradient
       inkscape:collect="always"
       xlink:href="#linearGradientGreenBody"
       id="linearGradient3210"
       gradientUnits="userSpaceOnUse"
       gradientTransform="matrix(1.44,0,0,1.44,-173.22604,-259.83899)"
       x1="162.55586"
       y1="643.66162"
       x2="203.08711"
       y2="643.66162" />
    <linearGradient
       inkscape:collect="always"
       xlink:href="#linearGradientGreenBorder"
       id="linearGradient3212"
       gradientUnits="userSpaceOnUse"
       gradientTransform="matrix(1.44,0,0,1.44,-173.22604,-259.83899)"
       x1="162.55586"
       y1="643.66162"
       x2="203.08711"
       y2="643.66162" />
    <linearGradient
       y2="643.66162"
       x2="203.08711"
       y1="643.66162"
       x1="162.55586"
       gradientTransform="matrix(1.44,0,0,1.44,-173.22604,-253.92179)"
       gradientUnits="userSpaceOnUse"
       id="linearGradient4160"
       xlink:href="#linearGradientGreenBody"
       inkscape:collect="always" />
    <linearGradient
       y2="643.66162"
       x2="203.08711"
       y1="643.66162"
       x1="162.55586"
       gradientTransform="matrix(1.44,0,0,1.44,-173.22604,-253.92179)"
       gradientUnits="userSpaceOnUse"
       id="linearGradient4162"
       xlink:href="#linearGradientGreenBorder"
       inkscape:collect="always" />
    <linearGradient
       inkscape:collect="always"
       xlink:href="#linearGradientWhite"
       id="linearGradient3072"
       gradientUnits="userSpaceOnUse"
       x1="336.44302"
       y1="171.18916"
       x2="336.45895"
       y2="200.10072" />
    <linearGradient
       inkscape:collect="always"
       xlink:href="#linearGradientWhite"
       id="linearGradient3074"
       gradientUnits="userSpaceOnUse"
       gradientTransform="matrix(1.44,0,0,1.44,-375.78984,-251.1368)"
       x1="382.62448"
       y1="695.95337"
       x2="382.03867"
       y2="723.81677" />
    <linearGradient
       y2="723.81677"
       x2="382.03867"
       y1="695.95337"
       x1="382.62448"
       gradientTransform="matrix(1.44,0,0,1.44,-295.78984,-251.1368)"
       gradientUnits="userSpaceOnUse"
       id="linearGradient3074-0"
       xlink:href="#linearGradientWhite-6"
       inkscape:collect="always" />
    <linearGradient
       y2="200.10072"
       x2="336.45895"
       y1="171.18916"
       x1="336.44302"
       gradientUnits="userSpaceOnUse"
       id="linearGradient3072-3"
       xlink:href="#linearGradientWhite-6"
       inkscape:collect="always" />
    <linearGradient
       inkscape:collect="always"
       xlink:href="#linearGradientGreenBorder-3"
       id="linearGradient4162-9"
       gradientUnits="userSpaceOnUse"
       gradientTransform="matrix(1.44,0,0,1.44,-173.22604,-253.92179)"
       x1="162.55586"
       y1="643.66162"
       x2="203.08711"
       y2="643.66162" />
    <linearGradient
       inkscape:collect="always"
       xlink:href="#linearGradientGreenBody-9"
       id="linearGradient4160-2"
       gradientUnits="userSpaceOnUse"
       gradientTransform="matrix(1.44,0,0,1.44,-173.22604,-253.92179)"
       x1="162.55586"
       y1="643.66162"
       x2="203.08711"
       y2="643.66162" />
    <linearGradient
       y2="643.66162"
       x2="203.08711"
       y1="643.66162"
       x1="162.55586"
       gradientTransform="matrix(1.44,0,0,1.44,-173.22604,-259.83899)"
       gradientUnits="userSpaceOnUse"
       id="linearGradient3212-6"
       xlink:href="#linearGradientGreenBorder-3"
       inkscape:collect="always" />
    <linearGradient
       y2="643.66162"
       x2="203.08711"
       y1="643.66162"
       x1="162.55586"
       gradientTransform="matrix(1.44,0,0,1.44,-173.22604,-259.83899)"
       gradientUnits="userSpaceOnUse"
       id="linearGradient3210-2"
       xlink:href="#linearGradientGreenBody-9"
       inkscape:collect="always" />
    <linearGradient
       y2="643.66162"
       x2="203.08711"
       y1="643.66162"
       x1="162.55586"
       gradientTransform="matrix(1.0552086,0,0,1.2346833,-67.260409,-121.76733)"
       gradientUnits="userSpaceOnUse"
       id="linearGradient3207-3"
       xlink:href="#linearGradientGreenBorder-3"
       inkscape:collect="always" />
    <linearGradient
       y2="643.66162"
       x2="203.08711"
       y1="643.66162"
       x1="162.55586"
       gradientTransform="matrix(1.0552086,0,0,1.2346833,-67.260409,-121.76733)"
       gradientUnits="userSpaceOnUse"
       id="linearGradient3205-5"
       xlink:href="#linearGradientGreenBody-9"
       inkscape:collect="always" />
    <linearGradient
       y2="643.66162"
       x2="203.08711"
       y1="643.66162"
       x1="162.55586"
       gradientTransform="matrix(0.69180548,0,0,1.0293289,35.177512,10.411423)"
       gradientUnits="userSpaceOnUse"
       id="linearGradient3202-8"
       xlink:href="#linearGradientGreenBorder-3"
       inkscape:collect="always" />
    <linearGradient
       y2="643.66162"
       x2="203.08711"
       y1="643.66162"
       x1="162.55586"
       gradientTransform="matrix(0.69180548,0,0,1.0293289,35.177512,10.411423)"
       gradientUnits="userSpaceOnUse"
       id="linearGradient3200-9"
       xlink:href="#linearGradientGreenBody-9"
       inkscape:collect="always" />
    <linearGradient
       y2="643.66162"
       x2="203.08711"
       y1="643.66162"
       x1="162.55586"
       gradientTransform="matrix(-1.44,0,0,1.44,685.22604,-253.92179)"
       gradientUnits="userSpaceOnUse"
       id="linearGradient3239-1"
       xlink:href="#linearGradientGreenBorder-3"
       inkscape:collect="always" />
    <linearGradient
       y2="643.66162"
       x2="203.08711"
       y1="643.66162"
       x1="162.55586"
       gradientTransform="matrix(-1.44,0,0,1.44,685.22604,-253.92179)"
       gradientUnits="userSpaceOnUse"
       id="linearGradient3237-3"
       xlink:href="#linearGradientGreenBody-9"
       inkscape:collect="always" />
    <linearGradient
       y2="643.66162"
       x2="203.08711"
       y1="643.66162"
       x1="162.55586"
       gradientTransform="matrix(-1.0552086,0,0,1.2346833,579.26041,-121.76733)"
       gradientUnits="userSpaceOnUse"
       id="linearGradient3234-2"
       xlink:href="#linearGradientGreenBorder-3"
       inkscape:collect="always" />
    <linearGradient
       y2="643.66162"
       x2="203.08711"
       y1="643.66162"
       x1="162.55586"
       gradientTransform="matrix(-1.0552086,0,0,1.2346833,579.26041,-121.76733)"
       gradientUnits="userSpaceOnUse"
       id="linearGradient3232-3"
       xlink:href="#linearGradientGreenBody-9"
       inkscape:collect="always" />
    <linearGradient
       id="linearGradientGreenBorder-3">
      <stop
         id="stop3837-0"
         offset="0"
         style="stop-color:#afe060;stop-opacity:1;" />
      <stop
         style="stop-color:#80ba24;stop-opacity:1;"
         offset="0.21807227"
         id="stop3843-5" />
      <stop
         id="stop3839-4"
         offset="1"
         style="stop-color:#5c861a;stop-opacity:1;" />
    </linearGradient>
    <linearGradient
       y2="643.66162"
       x2="203.08711"
       y1="643.66162"
       x1="162.55586"
       gradientTransform="matrix(-0.69180548,0,0,1.0293289,476.82249,10.411423)"
       gradientUnits="userSpaceOnUse"
       id="linearGradient3229-2"
       xlink:href="#linearGradientGreenBorder-3"
       inkscape:collect="always" />
    <linearGradient
       y2="643.66162"
       x2="203.08711"
       y1="643.66162"
       x1="162.55586"
       gradientTransform="matrix(-0.69180548,0,0,1.0293289,476.82249,10.411423)"
       gradientUnits="userSpaceOnUse"
       id="linearGradient3227-7"
       xlink:href="#linearGradientGreenBody-9"
       inkscape:collect="always" />
    <linearGradient
       y2="257.92386"
       x2="338.40906"
       y1="171.18916"
       x1="336.44302"
       gradientUnits="userSpaceOnUse"
       id="linearGradient3149-3"
       xlink:href="#linearGradientGreenBody-9"
       inkscape:collect="always" />
    <linearGradient
       id="linearGradient4031-3">
      <stop
         id="stop4033-6"
         offset="0"
         style="stop-color:#ffffff;stop-opacity:0.52903223;" />
      <stop
         id="stop4035-8"
         offset="1"
         style="stop-color:#ffffff;stop-opacity:0;" />
    </linearGradient>
    <linearGradient
       y2="200.10072"
       x2="336.45895"
       y1="171.18916"
       x1="336.44302"
       gradientUnits="userSpaceOnUse"
       id="linearGradient4009-8"
       xlink:href="#linearGradientWhite-6"
       inkscape:collect="always" />
    <linearGradient
       id="linearGradientGreenBody-9">
      <stop
         style="stop-color:#afe060;stop-opacity:1;"
         offset="0"
         id="stop3855-2" />
      <stop
         id="stop3857-8"
         offset="0.32912764"
         style="stop-color:#80ba24;stop-opacity:1;" />
      <stop
         style="stop-color:#5c861a;stop-opacity:1;"
         offset="1"
         id="stop3859-5" />
    </linearGradient>
    <linearGradient
       y2="880.25012"
       x2="382.74017"
       y1="695.95337"
       x1="382.62448"
       gradientTransform="matrix(1.44,0,0,1.44,-295.78984,-251.1368)"
       gradientUnits="userSpaceOnUse"
       id="linearGradient3147-0"
       xlink:href="#linearGradientGreenBody-9"
       inkscape:collect="always" />
    <linearGradient
       id="linearGradientWhite-6">
      <stop
         id="stop4417-8"
         offset="0"
         style="stop-color:#ffffff;stop-opacity:0.52903223;" />
      <stop
         id="stop4419-2"
         offset="1"
         style="stop-color:#ffffff;stop-opacity:0;" />
    </linearGradient>
    <linearGradient
       y2="723.81677"
       x2="382.03867"
       y1="695.95337"
       x1="382.62448"
       gradientTransform="matrix(1.44,0,0,1.44,-295.78984,-251.1368)"
       gradientUnits="userSpaceOnUse"
       id="linearGradient3144-7"
       xlink:href="#linearGradientWhite-6"
       inkscape:collect="always" />
    <radialGradient
       inkscape:collect="always"
       xlink:href="#linearGradient4246"
       id="radialGradient4244"
       cx="-295.98032"
       cy="256.4368"
       fx="-295.98032"
       fy="256.4368"
       r="220.6059"
       gradientTransform="matrix(0.95,0,0,1.0852602,537.18129,518.06152)"
       gradientUnits="userSpaceOnUse" />
    <radialGradient
       inkscape:collect="always"
       xlink:href="#linearGradient4264"
       id="radialGradient4262"
       cx="-295.98032"
       cy="256.4368"
       fx="-295.98032"
       fy="256.4368"
       r="220.6059"
       gradientTransform="matrix(0.95,0,0,1.0852602,537.18129,518.06152)"
       gradientUnits="userSpaceOnUse" />
  </defs>
  <sodipodi:namedview
     id="base"
     pagecolor="#ffffff"
     bordercolor="#666666"
     borderopacity="1.0"
     inkscape:pageopacity="0.0"
     inkscape:pageshadow="2"
     inkscape:zoom="0.98994949"
     inkscape:cx="-56.751198"
     inkscape:cy="292.43872"
     inkscape:document-units="px"
     inkscape:current-layer="layer1"
     showgrid="false"
     inkscape:window-width="1920"
     inkscape:window-height="1025"
     inkscape:window-x="-8"
     inkscape:window-y="-4"
     inkscape:window-maximized="1" />
  <metadata
     id="metadata4169">
    <rdf:RDF>
      <cc:Work
         rdf:about="">
        <dc:format>image/svg+xml</dc:format>
        <dc:type
           rdf:resource="http://purl.org/dc/dcmitype/StillImage" />
        <dc:title />
      </cc:Work>
    </rdf:RDF>
  </metadata>
  <g
     inkscape:label="Ebene 1"
     inkscape:groupmode="layer"
     id="layer1"
     transform="translate(0,-540.36218)">
    <path
       style="fill:url(#radialGradient4244);fill-opacity:1;stroke:url(#radialGradient4262);stroke-width:3.79999995;stroke-miterlimit:4;stroke-opacity:1;stroke-dasharray:none"
       d="m 106.74223,558.86284 c -0.94039,0.29813 -6.41537,5.131 -12.706251,11.25157 -21.623539,21.03809 -35.479279,45.1187 -42.5125,73.8625 -3.468972,14.17725 -4.305504,46.2793 -1.573437,60.85937 5.053059,26.96647 17.584956,53.32531 33.992187,71.4875 2.15594,2.38655 4.093009,4.33438 4.304688,4.33438 0.211669,0 -0.379639,-1.86753 -1.335938,-4.15625 -2.939737,-7.03579 -9.417758,-33.90419 -11.4,-47.32188 -7.002127,-47.39702 -0.417658,-97.88444 18.614063,-142.70781 2.880637,-6.78446 7.059998,-15.6275 9.292188,-19.65313 2.23219,-4.02564 3.78584,-7.61414 3.44375,-7.95625 -0.0214,-0.0214 -0.0561,-0.0199 -0.11875,0 z m 298.47813,0 c -0.0857,-0.007 -0.16503,-0.0131 -0.20782,0.0296 -0.36139,0.3614 0.65606,2.90712 2.25625,5.64063 1.60021,2.73349 5.36739,10.44735 8.37188,17.12969 20.63511,45.89466 28.01274,98.33074 20.75156,147.54687 -1.95996,13.28456 -8.57469,40.60865 -11.57812,47.79688 l -1.75157,4.18593 3.62188,-3.44375 c 5.50681,-5.23502 15.6817,-20.16755 21.46406,-31.49843 10.70699,-20.98098 15.46956,-41.61842 15.52656,-67.2125 0.0757,-34.01037 -7.6132,-59.06468 -26.77812,-87.10313 -6.3408,-9.27666 -29.02083,-32.85105 -31.67656,-33.07187 z m -251.72032,22.65157 -4.5125,3.5625 c -7.12334,5.6418 -20.31821,20.29998 -26.06562,28.94531 -6.96267,10.47337 -12.85105,23.57403 -16.625,37.05 -5.93598,21.3769 -3.99403,42.63351 0.20781,65.37187 5.36475,17.66982 15.19703,36.20821 25.53125,48.12344 1.97432,2.27637 3.72317,4.05721 3.88906,3.94844 0.1659,-0.10875 -0.52405,-2.51003 -1.51406,-5.31406 -3.25859,-9.22946 -7.28828,-26.84767 -9.2625,-40.375 -2.34869,-16.09338 -1.78392,-51.69974 1.06875,-66.91563 4.322,-23.0532 12.17812,-45.97003 22.17656,-64.77812 l 5.10625,-9.61875 z m 205.40782,0.35625 6.94687,14.07187 c 8.46711,17.10706 14.52276,34.72573 18.55469,53.97188 3.71056,17.71207 5.19411,51.96722 2.96875,68.84531 -2.28683,17.34436 -6.79804,36.77584 -11.34063,48.89531 -0.41513,1.10758 1.53255,-0.58825 4.30469,-3.77031 15.30923,-17.57297 26.84764,-45.06379 28.67813,-68.25156 3.40172,-43.09158 -12.73207,-82.43012 -44.8875,-109.36875 l -5.225,-4.39375 z m -180.2625,39.06875 c -0.32309,0.0615 -0.98947,0.52654 -1.95938,1.21718 -5.27112,3.75337 -15.6914,15.63612 -20.1875,23.0375 -20.02692,32.96787 -17.27593,75.77225 6.73906,104.94532 1.82346,2.2151 3.48661,3.8759 3.68125,3.68125 0.19467,-0.19466 -0.94944,-4.77611 -2.52343,-10.18282 -6.50678,-22.35107 -7.82687,-51.52181 -3.325,-73.47656 2.67708,-13.05561 9.14397,-31.88571 14.33906,-41.8 2.99848,-5.72227 3.94672,-7.55712 3.23594,-7.42187 z m 154.64218,0 c -0.71078,-0.13525 0.23748,1.6996 3.23594,7.42187 5.19916,9.92203 11.67673,28.80526 14.30938,41.74063 5.05133,24.81953 2.87755,55.8627 -5.75938,82.23437 -1.18052,3.60459 6.32796,-5.15019 10.80625,-12.5875 8.61373,-14.30516 12.85141,-29.4795 12.88438,-46.19375 0.0347,-17.54836 -4.39622,-33.65485 -13.32969,-48.36094 -4.4961,-7.40138 -14.91639,-19.28413 -20.1875,-23.0375 -0.96991,-0.69064 -1.63629,-1.1557 -1.95938,-1.21718 z m -77.63281,14.0125 c -4.59752,0.0309 -9.25488,0.56881 -13.89375,1.6625 -19.02383,4.48516 -35.6378,19.19173 -42.15625,37.2875 -3.02635,8.40144 -4.0285,23.82538 -2.10781,32.56718 4.9592,22.57111 24.62456,41.06651 48.62812,45.71875 1.59104,0.30837 7.32643,0.35543 12.73594,0.11875 22.89891,-1.00191 40.96533,-13.00817 51.3,-34.11093 7.673,-15.69848 7.01716,-36.97909 -4.72031,-57.08907 -11.10753,-16.73455 -29.86333,-26.28832 -49.78594,-26.15468 z m -4.72031,131.69375 c -7.72915,0.003 -14.66323,0.22858 -18.37656,0.74218 -23.87468,3.30223 -36.78182,11.65333 -39.69219,25.62032 -1.75566,8.42541 -0.78474,92.56883 1.21719,105.59843 2.66287,17.33131 21.27672,88.38601 29.80625,113.73281 5.31505,15.7945 6.52844,17.0262 19.92031,20.0985 17.15812,3.9364 35.71509,-0.5039 40.34531,-9.6485 5.77132,-11.3982 30.13135,-101.37224 33.75469,-124.65781 1.96139,-12.60492 2.89286,-96.85609 1.15781,-105.18281 -2.65935,-12.76254 -14.19523,-21.0944 -33.99219,-24.58125 -6.15515,-1.08411 -21.2587,-1.72643 -34.14062,-1.72187 z"
       id="path3114"
       inkscape:connector-curvature="0" />
  </g>
</svg>
