<?xml version="1.0" encoding="UTF-8" standalone="no"?>
<svg
   xmlns:dc="http://purl.org/dc/elements/1.1/"
   xmlns:cc="http://creativecommons.org/ns#"
   xmlns:rdf="http://www.w3.org/1999/02/22-rdf-syntax-ns#"
   xmlns:svg="http://www.w3.org/2000/svg"
   xmlns="http://www.w3.org/2000/svg"
   version="1.1"
   id="svg2"
   viewBox="0 0 512 512">
  <metadata
     id="metadata10">
    <rdf:RDF>
      <cc:Work
         rdf:about="">
        <dc:format>image/svg+xml</dc:format>
        <dc:type
           rdf:resource="http://purl.org/dc/dcmitype/StillImage" />
        <dc:title></dc:title>
      </cc:Work>
    </rdf:RDF>
  </metadata>
  <defs
     id="defs8" />
  <path
     style="fill:#000;fill-opacity:1"
     id="path4"
     transform="translate(0-540.36)"
     stroke-width="3.8"
     stroke="#000"
     d="m106.74 558.86c-.94.298-6.415 5.131-12.706 11.252-21.624 21.04-35.479 45.12-42.513 73.862-3.469 14.177-4.306 46.28-1.573 60.859 5.05 26.966 17.585 53.33 33.992 71.49 2.156 2.387 4.093 4.334 4.305 4.334.212 0-.38-1.868-1.336-4.156-2.94-7.04-9.418-33.904-11.4-47.32-7-47.4-.418-97.88 18.614-142.71 2.881-6.784 7.06-15.628 9.292-19.653 2.232-4.03 3.786-7.614 3.444-7.956-.021-.021-.056-.02-.119 0zm298.48 0c-.086-.007-.165-.013-.208.03-.361.361.656 2.907 2.256 5.641 1.6 2.733 5.367 10.447 8.372 17.13 20.635 45.895 28.01 98.33 20.752 147.55-1.96 13.285-8.575 40.609-11.578 47.797l-1.752 4.186 3.622-3.444c5.507-5.235 15.682-20.17 21.464-31.498 10.707-20.981 15.47-41.618 15.527-67.21.076-34.01-7.613-59.06-26.778-87.1-6.341-9.277-29.02-32.851-31.677-33.07zm-251.72 22.652l-4.512 3.563c-7.123 5.642-20.318 20.3-26.07 28.945-6.963 10.473-12.851 23.574-16.625 37.05-5.936 21.377-3.994 42.634.208 65.37 5.365 17.67 15.197 36.21 25.531 48.12 1.974 2.276 3.723 4.057 3.889 3.948.166-.109-.524-2.51-1.514-5.314-3.259-9.229-7.288-26.848-9.263-40.37-2.349-16.09-1.784-51.7 1.069-66.916 4.322-23.05 12.178-45.97 22.18-64.778l5.106-9.619zm205.41.356l6.947 14.07c8.467 17.11 14.523 34.726 18.555 53.972 3.711 17.712 5.194 51.967 2.969 68.845-2.287 17.344-6.798 36.776-11.341 48.895-.415 1.108 1.533-.588 4.305-3.77 15.309-17.573 26.848-45.06 28.678-68.25 3.402-43.09-12.732-82.43-44.887-109.37l-5.225-4.394zm-180.26 39.07c-.323.062-.989.527-1.959 1.217-5.271 3.753-15.691 15.636-20.19 23.04-20.03 32.968-17.276 75.77 6.739 104.95 1.823 2.215 3.487 3.876 3.681 3.681.195-.195-.949-4.776-2.523-10.183-6.507-22.351-7.827-51.52-3.325-73.48 2.677-13.06 9.144-31.886 14.339-41.8 2.998-5.722 3.947-7.557 3.236-7.422zm154.64 0c-.711-.135.237 1.7 3.236 7.422 5.199 9.922 11.677 28.805 14.309 41.741 5.05 24.82 2.878 55.863-5.759 82.23-1.181 3.605 6.328-5.15 10.806-12.587 8.614-14.305 12.851-29.48 12.884-46.19.035-17.548-4.396-33.655-13.33-48.36-4.496-7.401-14.916-19.284-20.19-23.04-.97-.691-1.636-1.156-1.959-1.217zm-77.63 14.01c-4.598.031-9.255.569-13.894 1.663-19.02 4.485-35.638 19.19-42.16 37.29-3.03 8.401-4.03 23.825-2.108 32.567 4.959 22.571 24.625 41.07 48.628 45.719 1.591.308 7.326.355 12.736.119 22.899-1 40.965-13.01 51.3-34.11 7.673-15.698 7.02-36.979-4.72-57.09-11.11-16.735-29.863-26.288-49.786-26.15zm-4.72 131.69c-7.729.003-14.663.229-18.377.742-23.875 3.302-36.782 11.653-39.692 25.62-1.756 8.425-.785 92.57 1.217 105.6 2.663 17.331 21.277 88.39 29.806 113.73 5.315 15.794 6.528 17.03 19.92 20.1 17.16 3.936 35.715-.504 40.35-9.649 5.771-11.398 30.13-101.37 33.755-124.66 1.961-12.605 2.893-96.86 1.158-105.18-2.659-12.763-14.195-21.09-33.992-24.581-6.155-1.084-21.259-1.726-34.14-1.722z" />
</svg>
