<?xml version="1.0" encoding="UTF-8" standalone="no"?>
<!-- Created with Inkscape (http://www.inkscape.org/) -->

<svg
   xmlns:dc="http://purl.org/dc/elements/1.1/"
   xmlns:cc="http://creativecommons.org/ns#"
   xmlns:rdf="http://www.w3.org/1999/02/22-rdf-syntax-ns#"
   xmlns:svg="http://www.w3.org/2000/svg"
   xmlns="http://www.w3.org/2000/svg"
   xmlns:xlink="http://www.w3.org/1999/xlink"
   xmlns:sodipodi="http://sodipodi.sourceforge.net/DTD/sodipodi-0.dtd"
   xmlns:inkscape="http://www.inkscape.org/namespaces/inkscape"
   width="512"
   height="512"
   id="svg4164"
   version="1.1"
   inkscape:version="0.48.2 r9819"
   sodipodi:docname="logo.svg">
  <defs
     id="defs4166">
    <linearGradient
       inkscape:collect="always"
       xlink:href="#linearGradientWhite"
       id="linearGradient3144"
       gradientUnits="userSpaceOnUse"
       gradientTransform="matrix(1.44,0,0,1.44,-295.78984,-251.1368)"
       x1="382.62448"
       y1="695.95337"
       x2="382.03867"
       y2="723.81677" />
    <linearGradient
       id="linearGradientWhite">
      <stop
         style="stop-color:#ffffff;stop-opacity:0.52903223;"
         offset="0"
         id="stop4417" />
      <stop
         style="stop-color:#ffffff;stop-opacity:0;"
         offset="1"
         id="stop4419" />
    </linearGradient>
    <linearGradient
       inkscape:collect="always"
       xlink:href="#linearGradientGreenBody"
       id="linearGradient3147"
       gradientUnits="userSpaceOnUse"
       gradientTransform="matrix(1.44,0,0,1.44,-295.78984,-251.1368)"
       x1="382.62448"
       y1="695.95337"
       x2="382.74017"
       y2="880.25012" />
    <linearGradient
       id="linearGradientGreenBody">
      <stop
         id="stop3855"
         offset="0"
         style="stop-color:#afe060;stop-opacity:1;" />
      <stop
         style="stop-color:#80ba24;stop-opacity:1;"
         offset="0.32912764"
         id="stop3857" />
      <stop
         id="stop3859"
         offset="1"
         style="stop-color:#5c861a;stop-opacity:1;" />
    </linearGradient>
    <linearGradient
       inkscape:collect="always"
       xlink:href="#linearGradientWhite"
       id="linearGradient4009"
       gradientUnits="userSpaceOnUse"
       x1="336.44302"
       y1="171.18916"
       x2="336.45895"
       y2="200.10072" />
    <linearGradient
       id="linearGradient4031">
      <stop
         style="stop-color:#ffffff;stop-opacity:0.52903223;"
         offset="0"
         id="stop4033" />
      <stop
         style="stop-color:#ffffff;stop-opacity:0;"
         offset="1"
         id="stop4035" />
    </linearGradient>
    <linearGradient
       inkscape:collect="always"
       xlink:href="#linearGradientGreenBody"
       id="linearGradient3149"
       gradientUnits="userSpaceOnUse"
       x1="336.44302"
       y1="171.18916"
       x2="338.40906"
       y2="257.92386" />
    <linearGradient
       inkscape:collect="always"
       xlink:href="#linearGradientGreenBody"
       id="linearGradient3227"
       gradientUnits="userSpaceOnUse"
       gradientTransform="matrix(-0.69180548,0,0,1.0293289,476.82249,10.411423)"
       x1="162.55586"
       y1="643.66162"
       x2="203.08711"
       y2="643.66162" />
    <linearGradient
       inkscape:collect="always"
       xlink:href="#linearGradientGreenBorder"
       id="linearGradient3229"
       gradientUnits="userSpaceOnUse"
       gradientTransform="matrix(-0.69180548,0,0,1.0293289,476.82249,10.411423)"
       x1="162.55586"
       y1="643.66162"
       x2="203.08711"
       y2="643.66162" />
    <linearGradient
       id="linearGradientGreenBorder">
      <stop
         style="stop-color:#afe060;stop-opacity:1;"
         offset="0"
         id="stop3837" />
      <stop
         id="stop3843"
         offset="0.21807227"
         style="stop-color:#80ba24;stop-opacity:1;" />
      <stop
         style="stop-color:#5c861a;stop-opacity:1;"
         offset="1"
         id="stop3839" />
    </linearGradient>
    <linearGradient
       inkscape:collect="always"
       xlink:href="#linearGradientGreenBody"
       id="linearGradient3232"
       gradientUnits="userSpaceOnUse"
       gradientTransform="matrix(-1.0552086,0,0,1.2346833,579.26041,-121.76733)"
       x1="162.55586"
       y1="643.66162"
       x2="203.08711"
       y2="643.66162" />
    <linearGradient
       inkscape:collect="always"
       xlink:href="#linearGradientGreenBorder"
       id="linearGradient3234"
       gradientUnits="userSpaceOnUse"
       gradientTransform="matrix(-1.0552086,0,0,1.2346833,579.26041,-121.76733)"
       x1="162.55586"
       y1="643.66162"
       x2="203.08711"
       y2="643.66162" />
    <linearGradient
       inkscape:collect="always"
       xlink:href="#linearGradientGreenBody"
       id="linearGradient3237"
       gradientUnits="userSpaceOnUse"
       gradientTransform="matrix(-1.44,0,0,1.44,685.22604,-253.92179)"
       x1="162.55586"
       y1="643.66162"
       x2="203.08711"
       y2="643.66162" />
    <linearGradient
       inkscape:collect="always"
       xlink:href="#linearGradientGreenBorder"
       id="linearGradient3239"
       gradientUnits="userSpaceOnUse"
       gradientTransform="matrix(-1.44,0,0,1.44,685.22604,-253.92179)"
       x1="162.55586"
       y1="643.66162"
       x2="203.08711"
       y2="643.66162" />
    <linearGradient
       inkscape:collect="always"
       xlink:href="#linearGradientGreenBody"
       id="linearGradient3200"
       gradientUnits="userSpaceOnUse"
       gradientTransform="matrix(0.69180548,0,0,1.0293289,35.177512,10.411423)"
       x1="162.55586"
       y1="643.66162"
       x2="203.08711"
       y2="643.66162" />
    <linearGradient
       inkscape:collect="always"
       xlink:href="#linearGradientGreenBorder"
       id="linearGradient3202"
       gradientUnits="userSpaceOnUse"
       gradientTransform="matrix(0.69180548,0,0,1.0293289,35.177512,10.411423)"
       x1="162.55586"
       y1="643.66162"
       x2="203.08711"
       y2="643.66162" />
    <linearGradient
       inkscape:collect="always"
       xlink:href="#linearGradientGreenBody"
       id="linearGradient3205"
       gradientUnits="userSpaceOnUse"
       gradientTransform="matrix(1.0552086,0,0,1.2346833,-67.260409,-121.76733)"
       x1="162.55586"
       y1="643.66162"
       x2="203.08711"
       y2="643.66162" />
    <linearGradient
       inkscape:collect="always"
       xlink:href="#linearGradientGreenBorder"
       id="linearGradient3207"
       gradientUnits="userSpaceOnUse"
       gradientTransform="matrix(1.0552086,0,0,1.2346833,-67.260409,-121.76733)"
       x1="162.55586"
       y1="643.66162"
       x2="203.08711"
       y2="643.66162" />
    <linearGradient
       inkscape:collect="always"
       xlink:href="#linearGradientGreenBody"
       id="linearGradient3210"
       gradientUnits="userSpaceOnUse"
       gradientTransform="matrix(1.44,0,0,1.44,-173.22604,-259.83899)"
       x1="162.55586"
       y1="643.66162"
       x2="203.08711"
       y2="643.66162" />
    <linearGradient
       inkscape:collect="always"
       xlink:href="#linearGradientGreenBorder"
       id="linearGradient3212"
       gradientUnits="userSpaceOnUse"
       gradientTransform="matrix(1.44,0,0,1.44,-173.22604,-259.83899)"
       x1="162.55586"
       y1="643.66162"
       x2="203.08711"
       y2="643.66162" />
    <linearGradient
       y2="643.66162"
       x2="203.08711"
       y1="643.66162"
       x1="162.55586"
       gradientTransform="matrix(1.44,0,0,1.44,-173.22604,-253.92179)"
       gradientUnits="userSpaceOnUse"
       id="linearGradient4160"
       xlink:href="#linearGradientGreenBody"
       inkscape:collect="always" />
    <linearGradient
       y2="643.66162"
       x2="203.08711"
       y1="643.66162"
       x1="162.55586"
       gradientTransform="matrix(1.44,0,0,1.44,-173.22604,-253.92179)"
       gradientUnits="userSpaceOnUse"
       id="linearGradient4162"
       xlink:href="#linearGradientGreenBorder"
       inkscape:collect="always" />
    <linearGradient
       inkscape:collect="always"
       xlink:href="#linearGradientWhite"
       id="linearGradient3072"
       gradientUnits="userSpaceOnUse"
       x1="336.44302"
       y1="171.18916"
       x2="336.45895"
       y2="200.10072" />
    <linearGradient
       inkscape:collect="always"
       xlink:href="#linearGradientWhite"
       id="linearGradient3074"
       gradientUnits="userSpaceOnUse"
       gradientTransform="matrix(1.44,0,0,1.44,-295.78984,-251.1368)"
       x1="382.62448"
       y1="695.95337"
       x2="382.03867"
       y2="723.81677" />
    <linearGradient
       inkscape:collect="always"
       xlink:href="#linearGradientGreenBorder"
       id="linearGradient3850"
       x1="182.45844"
       y1="881.85315"
       x2="329.54156"
       y2="881.85315"
       gradientUnits="userSpaceOnUse" />
    <linearGradient
       inkscape:collect="always"
       xlink:href="#linearGradientGreenBorder"
       id="linearGradient3852"
       x1="292.56546"
       y1="215.52023"
       x2="384.23672"
       y2="215.52023"
       gradientUnits="userSpaceOnUse" />
  </defs>
  <sodipodi:namedview
     id="base"
     pagecolor="#ffffff"
     bordercolor="#666666"
     borderopacity="1.0"
     inkscape:pageopacity="0.0"
     inkscape:pageshadow="2"
     inkscape:zoom="0.98994949"
     inkscape:cx="86.511877"
     inkscape:cy="291.42857"
     inkscape:document-units="px"
     inkscape:current-layer="layer1"
     showgrid="false"
     inkscape:window-width="1280"
     inkscape:window-height="969"
     inkscape:window-x="-8"
     inkscape:window-y="-4"
     inkscape:window-maximized="1" />
  <metadata
     id="metadata4169">
    <rdf:RDF>
      <cc:Work
         rdf:about="">
        <dc:format>image/svg+xml</dc:format>
        <dc:type
           rdf:resource="http://purl.org/dc/dcmitype/StillImage" />
        <dc:title />
      </cc:Work>
    </rdf:RDF>
  </metadata>
  <g
     inkscape:label="Ebene 1"
     inkscape:groupmode="layer"
     id="layer1"
     transform="translate(0,-540.36218)">
    <path
       style="fill:url(#linearGradient4160);fill-opacity:1;stroke:url(#linearGradient4162);stroke-width:7.19999981;stroke-miterlimit:4;stroke-opacity:1;stroke-dasharray:none"
       d="m 115.6194,577.19091 c -30.8413,20.67103 -51.165,55.84322 -51.165,95.76 0,39.91679 20.3237,75.08897 51.165,95.76 -19.275,-25.44788 -31.005,-58.99284 -31.005,-95.76 0,-36.76716 11.73,-70.31212 31.005,-95.76 z"
       id="path3861"
       inkscape:connector-curvature="0" />
    <path
       style="fill:url(#linearGradient3205);fill-opacity:1;stroke:url(#linearGradient3207);stroke-width:5.70711946;stroke-miterlimit:4;stroke-opacity:1;stroke-dasharray:none"
       d="m 144.40084,590.84447 c -22.60001,17.72374 -37.49288,47.88104 -37.49288,82.10644 0,34.2254 14.89287,64.3827 37.49288,82.10644 -14.1244,-21.8195 -22.71996,-50.58158 -22.71996,-82.10644 0,-31.52485 8.59556,-60.28694 22.71996,-82.10644 z"
       id="path3861-1"
       inkscape:connector-curvature="0" />
    <path
       style="fill:url(#linearGradient3200);fill-opacity:1;stroke:url(#linearGradient3202);stroke-width:4.2192874;stroke-miterlimit:4;stroke-opacity:1;stroke-dasharray:none"
       d="m 173.94476,604.50055 c -14.81679,14.7759 -24.58071,39.91741 -24.58071,68.45039 0,28.533 9.76392,53.67447 24.58071,68.45033 -9.26011,-18.19041 -14.89543,-42.16873 -14.89543,-68.45033 0,-26.2816 5.63532,-50.25993 14.89543,-68.45039 z"
       id="path3861-4"
       inkscape:connector-curvature="0" />
    <path
       style="fill:url(#linearGradient3237);fill-opacity:1;stroke:url(#linearGradient3239);stroke-width:7.19999981;stroke-miterlimit:4;stroke-opacity:1;stroke-dasharray:none"
       d="m 396.3806,577.19091 c 30.8413,20.67103 51.165,55.84322 51.165,95.76 0,39.91679 -20.3237,75.08897 -51.165,95.76 19.275,-25.44788 31.005,-58.99284 31.005,-95.76 0,-36.76716 -11.73,-70.31212 -31.005,-95.76 z"
       id="path3861-6"
       inkscape:connector-curvature="0" />
    <path
       style="fill:url(#linearGradient3232);fill-opacity:1;stroke:url(#linearGradient3234);stroke-width:5.70711946;stroke-miterlimit:4;stroke-opacity:1;stroke-dasharray:none"
       d="m 367.59916,590.84447 c 22.60001,17.72374 37.49288,47.88104 37.49288,82.10644 0,34.2254 -14.89287,64.3827 -37.49288,82.10644 14.1244,-21.8195 22.71996,-50.58158 22.71996,-82.10644 0,-31.52485 -8.59556,-60.28694 -22.71996,-82.10644 z"
       id="path3861-1-2"
       inkscape:connector-curvature="0" />
    <path
       style="fill:url(#linearGradient3227);fill-opacity:1;stroke:url(#linearGradient3229);stroke-width:4.2192874;stroke-miterlimit:4;stroke-opacity:1;stroke-dasharray:none"
       d="m 338.05524,604.50055 c 14.8168,14.7759 24.58072,39.91741 24.58072,68.45039 0,28.533 -9.76392,53.67447 -24.58072,68.45033 9.26011,-18.19041 14.89544,-42.16873 14.89544,-68.45033 0,-26.2816 -5.63533,-50.25993 -14.89544,-68.45039 z"
       id="path3861-4-3"
       inkscape:connector-curvature="0" />
    <path
       sodipodi:type="arc"
       style="fill:url(#linearGradient3149);fill-opacity:1;stroke:url(#linearGradient3852);stroke-width:4.79814243000000040;stroke-miterlimit:4;stroke-opacity:1;stroke-dasharray:none"
       id="path3060"
       sodipodi:cx="338.40109"
       sodipodi:cy="215.52023"
       sodipodi:rx="43.436558"
       sodipodi:ry="42.931484"
       d="m 381.83765,215.52023 a 43.436558,42.931484 0 1 1 -86.87312,0 43.436558,42.931484 0 1 1 86.87312,0 z"
       transform="matrix(1.4918309,0,0,1.5093818,-248.83721,347.64859)" />
    <path
       sodipodi:type="arc"
       style="fill:url(#linearGradient3072);fill-opacity:1;stroke:none"
       id="path3060-2"
       sodipodi:cx="338.40109"
       sodipodi:cy="215.52023"
       sodipodi:rx="43.436558"
       sodipodi:ry="42.931484"
       d="m 381.83765,215.52023 a 43.436558,42.931484 0 1 1 -86.87312,0 43.436558,42.931484 0 1 1 86.87312,0 z"
       transform="matrix(1.4918309,0,0,1.5093818,-248.83721,347.64859)" />
    <path
       style="fill:url(#linearGradient3147);fill-opacity:1;stroke:url(#linearGradient3850);stroke-width:7.19999980999999956;stroke-miterlimit:4;stroke-opacity:1;stroke-dasharray:none"
       d="m 220.29306,756.33213 c 18.74667,-10.87912 53.25333,-10.87912 72,0 18.74667,10.87911 22.31279,25.972 28.8,50.4 6.48722,24.428 6.44214,58.07376 0,93.6 -6.44214,35.52624 -27.40781,115.58137 -52.20006,115.19997 -24.79225,-0.3814 -6.42806,-0.3814 -29.2,0 -22.77194,0.3814 -41.7578,-79.67373 -48.19994,-115.19997 -6.44214,-35.52624 -8.00804,-63.44521 0,-93.6 4.96637,-18.70121 10.05333,-39.52089 28.8,-50.4 z"
       id="rect3058"
       inkscape:connector-curvature="0"
       sodipodi:nodetypes="zzzzzzzsz" />
    <path
       style="fill:url(#linearGradient3074);fill-opacity:1;stroke:none"
       d="m 220.29306,756.33213 c 18.74667,-10.87912 53.25333,-10.87912 72,0 18.74667,10.87911 22.31279,25.972 28.8,50.4 6.48722,24.428 6.44214,58.07376 0,93.6 -6.44214,35.52624 -27.40781,115.58137 -52.20006,115.19997 -24.79225,-0.3814 -6.42806,-0.3814 -29.2,0 -22.77194,0.3814 -41.7578,-79.67373 -48.19994,-115.19997 -6.44214,-35.52624 -8.00804,-63.44521 0,-93.6 4.96637,-18.70121 10.05333,-39.52089 28.8,-50.4 z"
       id="rect3058-3"
       inkscape:connector-curvature="0"
       sodipodi:nodetypes="zzzzzzzsz" />
  </g>
</svg>
