<?xml version="1.0" encoding="UTF-8" standalone="no"?>
<!-- Created with Inkscape (http://www.inkscape.org/) -->

<svg
   xmlns:dc="http://purl.org/dc/elements/1.1/"
   xmlns:cc="http://creativecommons.org/ns#"
   xmlns:rdf="http://www.w3.org/1999/02/22-rdf-syntax-ns#"
   xmlns:svg="http://www.w3.org/2000/svg"
   xmlns="http://www.w3.org/2000/svg"
   xmlns:xlink="http://www.w3.org/1999/xlink"
   xmlns:sodipodi="http://sodipodi.sourceforge.net/DTD/sodipodi-0.dtd"
   xmlns:inkscape="http://www.inkscape.org/namespaces/inkscape"
   width="480"
   height="140"
   id="svg2"
   version="1.1"
   inkscape:version="0.48.3.1 r9886"
   sodipodi:docname="splash.svg"
   inkscape:export-filename="/home/pcvolkmer/Projekte/arsnovadesktop/src/resources/images/splash.png"
   inkscape:export-xdpi="90"
   inkscape:export-ydpi="90">
  <defs
     id="defs4">
    <linearGradient
       id="linearGradient4171">
      <stop
         style="stop-color:#808080;stop-opacity:1;"
         offset="0"
         id="stop4173" />
      <stop
         style="stop-color:#ffffff;stop-opacity:1;"
         offset="1"
         id="stop4175" />
    </linearGradient>
    <linearGradient
       y2="643.66162"
       x2="203.08711"
       y1="643.66162"
       x1="162.55586"
       gradientTransform="matrix(1.44,0,0,1.44,-173.22604,-259.83899)"
       gradientUnits="userSpaceOnUse"
       id="linearGradient3212"
       xlink:href="#linearGradientGreenBorder"
       inkscape:collect="always" />
    <linearGradient
       y2="643.66162"
       x2="203.08711"
       y1="643.66162"
       x1="162.55586"
       gradientTransform="matrix(1.44,0,0,1.44,-173.22604,-259.83899)"
       gradientUnits="userSpaceOnUse"
       id="linearGradient3210"
       xlink:href="#linearGradientGreenBody"
       inkscape:collect="always" />
    <linearGradient
       id="linearGradientGreenBorder">
      <stop
         id="stop3837"
         offset="0"
         style="stop-color:#afe060;stop-opacity:1;" />
      <stop
         style="stop-color:#80ba24;stop-opacity:1;"
         offset="0.21807227"
         id="stop3843" />
      <stop
         id="stop3839"
         offset="1"
         style="stop-color:#5c861a;stop-opacity:1;" />
    </linearGradient>
    <linearGradient
       id="linearGradient4031">
      <stop
         id="stop4033"
         offset="0"
         style="stop-color:#ffffff;stop-opacity:0.52903223;" />
      <stop
         id="stop4035"
         offset="1"
         style="stop-color:#ffffff;stop-opacity:0;" />
    </linearGradient>
    <linearGradient
       y2="200.10072"
       x2="336.45895"
       y1="171.18916"
       x1="336.44302"
       gradientUnits="userSpaceOnUse"
       id="linearGradient4009"
       xlink:href="#linearGradientWhite"
       inkscape:collect="always" />
    <linearGradient
       id="linearGradientGreenBody">
      <stop
         style="stop-color:#afe060;stop-opacity:1;"
         offset="0"
         id="stop3855" />
      <stop
         id="stop3857"
         offset="0.32912764"
         style="stop-color:#80ba24;stop-opacity:1;" />
      <stop
         style="stop-color:#5c861a;stop-opacity:1;"
         offset="1"
         id="stop3859" />
    </linearGradient>
    <linearGradient
       id="linearGradientWhite">
      <stop
         id="stop4417"
         offset="0"
         style="stop-color:#ffffff;stop-opacity:0.52903223;" />
      <stop
         id="stop4419"
         offset="1"
         style="stop-color:#ffffff;stop-opacity:0;" />
    </linearGradient>
    <linearGradient
       y2="723.81677"
       x2="382.03867"
       y1="695.95337"
       x1="382.62448"
       gradientTransform="matrix(1.44,0,0,1.44,-295.78984,-251.1368)"
       gradientUnits="userSpaceOnUse"
       id="linearGradient3144"
       xlink:href="#linearGradientWhite"
       inkscape:collect="always" />
    <linearGradient
       inkscape:collect="always"
       xlink:href="#linearGradientGreenBody"
       id="linearGradient3166"
       gradientUnits="userSpaceOnUse"
       gradientTransform="matrix(1.44,0,0,1.44,-173.22604,-253.92179)"
       x1="162.55586"
       y1="643.66162"
       x2="203.08711"
       y2="643.66162" />
    <linearGradient
       inkscape:collect="always"
       xlink:href="#linearGradientGreenBorder"
       id="linearGradient3168"
       gradientUnits="userSpaceOnUse"
       gradientTransform="matrix(1.44,0,0,1.44,-173.22604,-253.92179)"
       x1="162.55586"
       y1="643.66162"
       x2="203.08711"
       y2="643.66162" />
    <linearGradient
       inkscape:collect="always"
       xlink:href="#linearGradientGreenBody"
       id="linearGradient3170"
       gradientUnits="userSpaceOnUse"
       gradientTransform="matrix(1.0552086,0,0,1.2346833,-67.260409,-121.76733)"
       x1="162.55586"
       y1="643.66162"
       x2="203.08711"
       y2="643.66162" />
    <linearGradient
       inkscape:collect="always"
       xlink:href="#linearGradientGreenBorder"
       id="linearGradient3172"
       gradientUnits="userSpaceOnUse"
       gradientTransform="matrix(1.0552086,0,0,1.2346833,-67.260409,-121.76733)"
       x1="162.55586"
       y1="643.66162"
       x2="203.08711"
       y2="643.66162" />
    <linearGradient
       inkscape:collect="always"
       xlink:href="#linearGradientGreenBody"
       id="linearGradient3174"
       gradientUnits="userSpaceOnUse"
       gradientTransform="matrix(0.69180548,0,0,1.0293289,35.177512,10.411423)"
       x1="162.55586"
       y1="643.66162"
       x2="203.08711"
       y2="643.66162" />
    <linearGradient
       inkscape:collect="always"
       xlink:href="#linearGradientGreenBorder"
       id="linearGradient3176"
       gradientUnits="userSpaceOnUse"
       gradientTransform="matrix(0.69180548,0,0,1.0293289,35.177512,10.411423)"
       x1="162.55586"
       y1="643.66162"
       x2="203.08711"
       y2="643.66162" />
    <linearGradient
       inkscape:collect="always"
       xlink:href="#linearGradientGreenBody"
       id="linearGradient3178"
       gradientUnits="userSpaceOnUse"
       gradientTransform="matrix(-1.44,0,0,1.44,685.22604,-253.92179)"
       x1="162.55586"
       y1="643.66162"
       x2="203.08711"
       y2="643.66162" />
    <linearGradient
       inkscape:collect="always"
       xlink:href="#linearGradientGreenBorder"
       id="linearGradient3180"
       gradientUnits="userSpaceOnUse"
       gradientTransform="matrix(-1.44,0,0,1.44,685.22604,-253.92179)"
       x1="162.55586"
       y1="643.66162"
       x2="203.08711"
       y2="643.66162" />
    <linearGradient
       inkscape:collect="always"
       xlink:href="#linearGradientGreenBody"
       id="linearGradient3182"
       gradientUnits="userSpaceOnUse"
       gradientTransform="matrix(-1.0552086,0,0,1.2346833,579.26041,-121.76733)"
       x1="162.55586"
       y1="643.66162"
       x2="203.08711"
       y2="643.66162" />
    <linearGradient
       inkscape:collect="always"
       xlink:href="#linearGradientGreenBorder"
       id="linearGradient3184"
       gradientUnits="userSpaceOnUse"
       gradientTransform="matrix(-1.0552086,0,0,1.2346833,579.26041,-121.76733)"
       x1="162.55586"
       y1="643.66162"
       x2="203.08711"
       y2="643.66162" />
    <linearGradient
       inkscape:collect="always"
       xlink:href="#linearGradientGreenBody"
       id="linearGradient3186"
       gradientUnits="userSpaceOnUse"
       gradientTransform="matrix(-0.69180548,0,0,1.0293289,476.82249,10.411423)"
       x1="162.55586"
       y1="643.66162"
       x2="203.08711"
       y2="643.66162" />
    <linearGradient
       inkscape:collect="always"
       xlink:href="#linearGradientGreenBorder"
       id="linearGradient3188"
       gradientUnits="userSpaceOnUse"
       gradientTransform="matrix(-0.69180548,0,0,1.0293289,476.82249,10.411423)"
       x1="162.55586"
       y1="643.66162"
       x2="203.08711"
       y2="643.66162" />
    <linearGradient
       inkscape:collect="always"
       xlink:href="#linearGradientGreenBody"
       id="linearGradient3190"
       gradientUnits="userSpaceOnUse"
       x1="336.44302"
       y1="171.18916"
       x2="338.40906"
       y2="257.92386" />
    <linearGradient
       inkscape:collect="always"
       xlink:href="#linearGradientWhite"
       id="linearGradient3192"
       gradientUnits="userSpaceOnUse"
       x1="336.44302"
       y1="171.18916"
       x2="336.45895"
       y2="200.10072" />
    <linearGradient
       inkscape:collect="always"
       xlink:href="#linearGradientGreenBody"
       id="linearGradient3194"
       gradientUnits="userSpaceOnUse"
       gradientTransform="matrix(1.44,0,0,1.44,-295.78984,-251.1368)"
       x1="382.62448"
       y1="695.95337"
       x2="382.74017"
       y2="880.25012" />
    <linearGradient
       inkscape:collect="always"
       xlink:href="#linearGradientWhite"
       id="linearGradient3196"
       gradientUnits="userSpaceOnUse"
       gradientTransform="matrix(1.44,0,0,1.44,-295.78984,-251.1368)"
       x1="382.62448"
       y1="695.95337"
       x2="382.03867"
       y2="723.81677" />
    <clipPath
       clipPathUnits="userSpaceOnUse"
       id="clipPath3020">
      <path
         inkscape:connector-curvature="0"
         d="M 0,1459.77 0,0 l 4387.92,0 0,1459.77 -4387.92,0 z"
         id="path3022" />
    </clipPath>
    <linearGradient
       inkscape:collect="always"
       xlink:href="#linearGradient4171"
       id="linearGradient4177"
       x1="482"
       y1="-1"
       x2="461"
       y2="80"
       gradientUnits="userSpaceOnUse"
       gradientTransform="matrix(1.4842768,0,0,0.94285714,-236.45283,916.36218)" />
    <filter
       inkscape:collect="always"
       id="filter4254">
      <feGaussianBlur
         inkscape:collect="always"
         stdDeviation="0.70658125"
         id="feGaussianBlur4256" />
    </filter>
    <linearGradient
       inkscape:collect="always"
       xlink:href="#linearGradient4171-2"
       id="linearGradient4177-8"
       x1="482"
       y1="-1"
       x2="461"
       y2="80"
       gradientUnits="userSpaceOnUse"
       gradientTransform="matrix(1.509434,0,0,1,-244.5283,912.36218)" />
    <linearGradient
       id="linearGradient4171-2">
      <stop
         style="stop-color:#808080;stop-opacity:1;"
         offset="0"
         id="stop4173-9" />
      <stop
         style="stop-color:#f8f8f8;stop-opacity:1;"
         offset="1"
         id="stop4175-8" />
    </linearGradient>
    <filter
       inkscape:collect="always"
       id="filter4296">
      <feGaussianBlur
         inkscape:collect="always"
         stdDeviation="1.55"
         id="feGaussianBlur4298" />
    </filter>
    <filter
       inkscape:collect="always"
       id="filter3935"
       x="-0.11644306"
       width="1.2328861"
       y="-0.074174076"
       height="1.1483482">
      <feGaussianBlur
         inkscape:collect="always"
         stdDeviation="0.94951163"
         id="feGaussianBlur3937" />
    </filter>
    <filter
       inkscape:collect="always"
       id="filter3939"
       x="-0.11349807"
       width="1.2269961"
       y="-0.09921406"
       height="1.1984281">
      <feGaussianBlur
         inkscape:collect="always"
         stdDeviation="0.94951163"
         id="feGaussianBlur3941" />
    </filter>
    <filter
       inkscape:collect="always"
       id="filter3943"
       x="-0.16691848"
       width="1.333837"
       y="-0.081137503"
       height="1.162275">
      <feGaussianBlur
         inkscape:collect="always"
         stdDeviation="0.94951163"
         id="feGaussianBlur3945" />
    </filter>
    <filter
       inkscape:collect="always"
       id="filter3947"
       x="-0.11738029"
       width="1.2347606"
       y="-0.07498463"
       height="1.1499693">
      <feGaussianBlur
         inkscape:collect="always"
         stdDeviation="0.94951163"
         id="feGaussianBlur3949" />
    </filter>
    <filter
       inkscape:collect="always"
       id="filter3951"
       x="-0.13630372"
       width="1.2726074"
       y="-0.09921406"
       height="1.1984281">
      <feGaussianBlur
         inkscape:collect="always"
         stdDeviation="0.94951163"
         id="feGaussianBlur3953" />
    </filter>
    <filter
       inkscape:collect="always"
       id="filter3955"
       x="-0.1124046"
       width="1.2248092"
       y="-0.09921406"
       height="1.1984281">
      <feGaussianBlur
         inkscape:collect="always"
         stdDeviation="0.94951163"
         id="feGaussianBlur3957" />
    </filter>
    <filter
       inkscape:collect="always"
       id="filter3959">
      <feGaussianBlur
         inkscape:collect="always"
         stdDeviation="0.94951163"
         id="feGaussianBlur3961" />
    </filter>
    <filter
       inkscape:collect="always"
       id="filter3963"
       x="-0.12333616"
       width="1.2466723"
       y="-0.09921406"
       height="1.1984281">
      <feGaussianBlur
         inkscape:collect="always"
         stdDeviation="0.94951163"
         id="feGaussianBlur3965" />
    </filter>
    <filter
       inkscape:collect="always"
       id="filter3967"
       x="-0.1070422"
       width="1.2140844"
       y="-0.10417499"
       height="1.20835">
      <feGaussianBlur
         inkscape:collect="always"
         stdDeviation="0.94951163"
         id="feGaussianBlur3969" />
    </filter>
    <filter
       inkscape:collect="always"
       id="filter3971"
       x="-0.11349807"
       width="1.2269961"
       y="-0.09921406"
       height="1.1984281">
      <feGaussianBlur
         inkscape:collect="always"
         stdDeviation="0.94951163"
         id="feGaussianBlur3973" />
    </filter>
    <filter
       inkscape:collect="always"
       id="filter3975"
       x="-0.124388"
       width="1.248776"
       y="-0.10172249"
       height="1.203445">
      <feGaussianBlur
         inkscape:collect="always"
         stdDeviation="0.94951163"
         id="feGaussianBlur3977" />
    </filter>
    <filter
       inkscape:collect="always"
       id="filter3979"
       x="-0.11101428"
       width="1.2220286"
       y="-0.075323443"
       height="1.1506469">
      <feGaussianBlur
         inkscape:collect="always"
         stdDeviation="0.94951163"
         id="feGaussianBlur3981" />
    </filter>
    <filter
       inkscape:collect="always"
       id="filter3983"
       x="-0.10032331"
       width="1.2006466"
       y="-0.078148569"
       height="1.1562971">
      <feGaussianBlur
         inkscape:collect="always"
         stdDeviation="0.94951163"
         id="feGaussianBlur3985" />
    </filter>
    <filter
       inkscape:collect="always"
       id="filter3987">
      <feGaussianBlur
         inkscape:collect="always"
         stdDeviation="0.94951163"
         id="feGaussianBlur3989" />
    </filter>
  </defs>
  <sodipodi:namedview
     id="base"
     pagecolor="#ffffff"
     bordercolor="#666666"
     borderopacity="1.0"
     inkscape:pageopacity="0.0"
     inkscape:pageshadow="2"
     inkscape:zoom="1"
     inkscape:cx="-32.5"
     inkscape:cy="62.857143"
     inkscape:document-units="px"
     inkscape:current-layer="layer1"
     showgrid="false"
     width="480px"
     inkscape:window-width="1920"
     inkscape:window-height="1028"
     inkscape:window-x="-8"
     inkscape:window-y="-4"
     inkscape:window-maximized="1" />
  <metadata
     id="metadata7">
    <rdf:RDF>
      <cc:Work
         rdf:about="">
        <dc:format>image/svg+xml</dc:format>
        <dc:type
           rdf:resource="http://purl.org/dc/dcmitype/StillImage" />
        <dc:title></dc:title>
      </cc:Work>
    </rdf:RDF>
  </metadata>
  <g
     inkscape:label="Ebene 1"
     inkscape:groupmode="layer"
     id="layer1"
     transform="translate(0,-912.36218)">
    <rect
       style="fill:#000000;fill-opacity:0.50196078;stroke:none;filter:url(#filter4296)"
       id="rect4169-2"
       width="480"
       height="140"
       x="3.7199998"
       y="908.64215"
       transform="matrix(0.98473658,0,0,0.9495388,0,53.10346)" />
    <rect
       style="fill:url(#linearGradient4177);fill-opacity:1;stroke:none"
       id="rect4169"
       width="472"
       height="132"
       x="4"
       y="916.36218" />
    <g
       transform="matrix(0.22444546,0,0,0.22444546,1.54196,799.6223)"
       id="layer1-8"
       inkscape:label="Ebene 1">
      <path
         inkscape:connector-curvature="0"
         id="path3861"
         d="m 115.6194,577.19091 c -30.8413,20.67103 -51.165,55.84322 -51.165,95.76 0,39.91679 20.3237,75.08897 51.165,95.76 -19.275,-25.44788 -31.005,-58.99284 -31.005,-95.76 0,-36.76716 11.73,-70.31212 31.005,-95.76 z"
         style="fill:url(#linearGradient3166);fill-opacity:1;stroke:url(#linearGradient3168);stroke-width:7.19999981;stroke-miterlimit:4;stroke-opacity:1;stroke-dasharray:none" />
      <path
         inkscape:connector-curvature="0"
         id="path3861-1"
         d="m 144.40084,590.84447 c -22.60001,17.72374 -37.49288,47.88104 -37.49288,82.10644 0,34.2254 14.89287,64.3827 37.49288,82.10644 -14.1244,-21.8195 -22.71996,-50.58158 -22.71996,-82.10644 0,-31.52485 8.59556,-60.28694 22.71996,-82.10644 z"
         style="fill:url(#linearGradient3170);fill-opacity:1;stroke:url(#linearGradient3172);stroke-width:5.70711946;stroke-miterlimit:4;stroke-opacity:1;stroke-dasharray:none" />
      <path
         inkscape:connector-curvature="0"
         id="path3861-4"
         d="m 173.94476,604.50055 c -14.81679,14.7759 -24.58071,39.91741 -24.58071,68.45039 0,28.533 9.76392,53.67447 24.58071,68.45033 -9.26011,-18.19041 -14.89543,-42.16873 -14.89543,-68.45033 0,-26.2816 5.63532,-50.25993 14.89543,-68.45039 z"
         style="fill:url(#linearGradient3174);fill-opacity:1;stroke:url(#linearGradient3176);stroke-width:4.2192874;stroke-miterlimit:4;stroke-opacity:1;stroke-dasharray:none" />
      <path
         inkscape:connector-curvature="0"
         id="path3861-6"
         d="m 396.3806,577.19091 c 30.8413,20.67103 51.165,55.84322 51.165,95.76 0,39.91679 -20.3237,75.08897 -51.165,95.76 19.275,-25.44788 31.005,-58.99284 31.005,-95.76 0,-36.76716 -11.73,-70.31212 -31.005,-95.76 z"
         style="fill:url(#linearGradient3178);fill-opacity:1;stroke:url(#linearGradient3180);stroke-width:7.19999981;stroke-miterlimit:4;stroke-opacity:1;stroke-dasharray:none" />
      <path
         inkscape:connector-curvature="0"
         id="path3861-1-2"
         d="m 367.59916,590.84447 c 22.60001,17.72374 37.49288,47.88104 37.49288,82.10644 0,34.2254 -14.89287,64.3827 -37.49288,82.10644 14.1244,-21.8195 22.71996,-50.58158 22.71996,-82.10644 0,-31.52485 -8.59556,-60.28694 -22.71996,-82.10644 z"
         style="fill:url(#linearGradient3182);fill-opacity:1;stroke:url(#linearGradient3184);stroke-width:5.70711946;stroke-miterlimit:4;stroke-opacity:1;stroke-dasharray:none" />
      <path
         inkscape:connector-curvature="0"
         id="path3861-4-3"
         d="m 338.05524,604.50055 c 14.8168,14.7759 24.58072,39.91741 24.58072,68.45039 0,28.533 -9.76392,53.67447 -24.58072,68.45033 9.26011,-18.19041 14.89544,-42.16873 14.89544,-68.45033 0,-26.2816 -5.63533,-50.25993 -14.89544,-68.45039 z"
         style="fill:url(#linearGradient3186);fill-opacity:1;stroke:url(#linearGradient3188);stroke-width:4.2192874;stroke-miterlimit:4;stroke-opacity:1;stroke-dasharray:none" />
      <path
         transform="matrix(1.4918309,0,0,1.5093818,-248.83721,347.64859)"
         d="m 381.83765,215.52023 c 0,23.71041 -19.44721,42.93149 -43.43656,42.93149 -23.98935,0 -43.43656,-19.22108 -43.43656,-42.93149 0,-23.7104 19.44721,-42.93148 43.43656,-42.93148 23.98935,0 43.43656,19.22108 43.43656,42.93148 z"
         sodipodi:ry="42.931484"
         sodipodi:rx="43.436558"
         sodipodi:cy="215.52023"
         sodipodi:cx="338.40109"
         id="path3060"
         style="fill:url(#linearGradient3190);fill-opacity:1;stroke:#5c861a;stroke-width:4.79814243;stroke-miterlimit:4;stroke-opacity:1;stroke-dasharray:none"
         sodipodi:type="arc" />
      <path
         transform="matrix(1.4918309,0,0,1.5093818,-248.83721,347.64859)"
         d="m 381.83765,215.52023 c 0,23.71041 -19.44721,42.93149 -43.43656,42.93149 -23.98935,0 -43.43656,-19.22108 -43.43656,-42.93149 0,-23.7104 19.44721,-42.93148 43.43656,-42.93148 23.98935,0 43.43656,19.22108 43.43656,42.93148 z"
         sodipodi:ry="42.931484"
         sodipodi:rx="43.436558"
         sodipodi:cy="215.52023"
         sodipodi:cx="338.40109"
         id="path3060-2"
         style="fill:url(#linearGradient3192);fill-opacity:1;stroke:none"
         sodipodi:type="arc" />
      <path
         sodipodi:nodetypes="zzzzzzzsz"
         inkscape:connector-curvature="0"
         id="rect3058"
         d="m 220.29306,756.33213 c 18.74667,-10.87912 53.25333,-10.87912 72,0 18.74667,10.87911 22.31279,25.972 28.8,50.4 6.48722,24.428 6.44214,58.07376 0,93.6 -6.44214,35.52624 -27.40781,115.58137 -52.20006,115.19997 -24.79225,-0.3814 -6.42806,-0.3814 -29.2,0 -22.77194,0.3814 -41.7578,-79.67373 -48.19994,-115.19997 -6.44214,-35.52624 -8.00804,-63.44521 0,-93.6 4.96637,-18.70121 10.05333,-39.52089 28.8,-50.4 z"
         style="fill:url(#linearGradient3194);fill-opacity:1;stroke:#5c861a;stroke-width:7.19999981;stroke-miterlimit:4;stroke-opacity:1;stroke-dasharray:none" />
      <path
         sodipodi:nodetypes="zzzzzzzsz"
         inkscape:connector-curvature="0"
         id="rect3058-3"
         d="m 220.29306,756.33213 c 18.74667,-10.87912 53.25333,-10.87912 72,0 18.74667,10.87911 22.31279,25.972 28.8,50.4 6.48722,24.428 6.44214,58.07376 0,93.6 -6.44214,35.52624 -27.40781,115.58137 -52.20006,115.19997 -24.79225,-0.3814 -6.42806,-0.3814 -29.2,0 -22.77194,0.3814 -41.7578,-79.67373 -48.19994,-115.19997 -6.44214,-35.52624 -8.00804,-63.44521 0,-93.6 4.96637,-18.70121 10.05333,-39.52089 28.8,-50.4 z"
         style="fill:url(#linearGradient3196);fill-opacity:1;stroke:none" />
    </g>
    <g
       transform="matrix(0.16,0,0,0.16,374.8,878.12709)"
       id="layer1-1"
       inkscape:label="Ebene 1">
      <g
         transform="matrix(0.125,0,0,-0.125,45.755,1018.5978)"
         id="g3016">
        <g
           id="g3018"
           clip-path="url(#clipPath3020)">
          <path
             inkscape:connector-curvature="0"
             d="m 549.855,451.781 183.266,0 0,183.254 -183.266,0 0,-183.254 z"
             style="fill:#80ba24;fill-opacity:1;fill-rule:nonzero;stroke:none"
             id="path3024" />
          <path
             inkscape:connector-curvature="0"
             d="m 549.855,726.664 183.266,0 0,183.277 -183.266,0 0,-183.277 z"
             style="fill:#80ba24;fill-opacity:1;fill-rule:nonzero;stroke:none"
             id="path3026" />
          <path
             inkscape:connector-curvature="0"
             d="m 549.855,1001.59 183.266,0 0,183.254 -183.266,0 0,-183.254 z"
             style="fill:#80ba24;fill-opacity:1;fill-rule:nonzero;stroke:none"
             id="path3028" />
          <path
             inkscape:connector-curvature="0"
             d="m 549.855,1276.49 183.266,0 0,183.258 -183.266,0 0,-183.258 z"
             style="fill:#80ba24;fill-opacity:1;fill-rule:nonzero;stroke:none"
             id="path3030" />
          <path
             inkscape:connector-curvature="0"
             d="m 274.926,1001.59 183.266,0 0,183.254 -183.266,0 0,-183.254 z"
             style="fill:#80ba24;fill-opacity:1;fill-rule:nonzero;stroke:none"
             id="path3032" />
          <path
             inkscape:connector-curvature="0"
             d="m 274.926,1276.49 183.266,0 0,183.258 -183.266,0 0,-183.258 z"
             style="fill:#80ba24;fill-opacity:1;fill-rule:nonzero;stroke:none"
             id="path3034" />
          <path
             inkscape:connector-curvature="0"
             d="m 0.0351562,1001.59 183.2660038,0 0,183.254 -183.2660038,0 0,-183.254 z"
             style="fill:#80ba24;fill-opacity:1;fill-rule:nonzero;stroke:none"
             id="path3036" />
          <path
             inkscape:connector-curvature="0"
             d="m 274.926,451.781 183.266,0 0,183.254 -183.266,0 0,-183.254 z"
             style="fill:#80ba24;fill-opacity:1;fill-rule:nonzero;stroke:none"
             id="path3038" />
          <path
             inkscape:connector-curvature="0"
             d="m 274.926,726.664 183.266,0 0,183.277 -183.266,0 0,-183.277 z"
             style="fill:#80ba24;fill-opacity:1;fill-rule:nonzero;stroke:none"
             id="path3040" />
          <path
             inkscape:connector-curvature="0"
             d="m 0.0351562,451.781 183.2660038,0 0,183.254 -183.2660038,0 0,-183.254 z"
             style="fill:#80ba24;fill-opacity:1;fill-rule:nonzero;stroke:none"
             id="path3042" />
          <path
             inkscape:connector-curvature="0"
             d="m 0.0351562,726.664 183.2660038,0 0,183.277 -183.2660038,0 0,-183.277 z"
             style="fill:#80ba24;fill-opacity:1;fill-rule:nonzero;stroke:none"
             id="path3044" />
          <path
             inkscape:connector-curvature="0"
             d="m 1944.15,1276.49 0,-824.728 -204.39,0 0,824.728 -273.55,0 0,183.26 751.47,0 0,-183.26 -273.53,0"
             style="fill:#80ba24;fill-opacity:1;fill-rule:nonzero;stroke:none"
             id="path3046" />
          <path
             inkscape:connector-curvature="0"
             d="m 3005.59,451.762 0,421.242 -354.41,0 0,-421.242 -204.38,0 0,1008.008 204.38,0 0,-405.81 354.41,0 0,405.81 204.4,0 0,-1008.008 -204.4,0"
             style="fill:#80ba24;fill-opacity:1;fill-rule:nonzero;stroke:none"
             id="path3048" />
          <path
             inkscape:connector-curvature="0"
             d="m 4183.19,451.762 0,571.168 -195.34,-387.848 -147.76,-0.047 -196.6,387.895 0,-571.168 -204.42,0 0,1008.008 201.49,0 273.5,-566.293 272.06,566.293 201.46,0 0,-1008.008 -204.39,0"
             style="fill:#80ba24;fill-opacity:1;fill-rule:nonzero;stroke:none"
             id="path3050" />
          <path
             inkscape:connector-curvature="0"
             d="m 100.367,198.66 0,23.77 -100.367,0 0,-23.77 37.0586,0 0,-196.19906 26.5352,0 0,196.19906 36.7732,0 z M 221.738,2.46094 l 0,23.76956 -58.375,0 0,74.8005 50.36,0 0,23.75 -50.36,0 0,73.879 58.375,0 0,23.77 -84.918,0 0,-219.96906 84.918,0 z m 136.867,54.36716 -26.203,0 c -0.332,-9.289 -2.175,-18.8789 -7.121,-25.3672 -3.41,-4.3125 -8.98,-7.7226 -17.316,-7.7226 -8.656,0 -14.524,3.4101 -18.242,8.3515 -7.735,10.5118 -8.957,28.129 -8.957,80.3402 0,52.242 1.222,69.859 8.957,80.371 3.718,4.937 9.586,8.34 18.242,8.34 8.336,0 13.906,-3.403 17.316,-7.743 5.246,-6.488 6.789,-15.757 7.121,-25.007 l 26.203,0 c -0.293,17.91 -5.539,33.668 -15.718,43.558 -8.641,8.321 -19.473,12.942 -34.922,12.942 -17.32,0 -29.371,-6.481 -37.707,-16.039 -14.477,-16.692 -16.035,-35.52 -16.035,-96.422 0,-60.8714 1.558,-79.6995 16.035,-96.3909 C 278.594,6.48047 290.645,0 307.965,0 c 14.523,0 25.359,4.30859 34,12.0312 10.777,9.8672 16.347,26.25 16.64,44.7969 m 140.981,-54.36716 0,219.96906 -26.527,0 0,-96.098 -48.86,0 0,96.098 -26.531,0 0,-219.96906 26.531,0 0,100.09806 48.86,0 0,-100.09806 26.527,0 z m 152.769,0 0,219.96906 -26.515,0 0,-150.4612 -56.274,150.4612 -24.683,0 0,-219.96906 26.535,0 0,150.46106 56.875,-150.46106 24.062,0 z m 75.399,219.96906 -26.531,0 0,-219.94953 26.531,0 0,219.94953 z M 871.5,61.4297 c 0,34.6211 -5.863,50.0703 -30.855,60.2813 l -24.747,10.199 c -17.628,7.418 -21.019,13.91 -21.019,35.539 0,11.449 2.469,20.41 7.734,26.281 3.699,4.008 9.274,6.782 17.004,6.782 8.356,0 14.223,-2.774 17.942,-7.422 5.554,-6.789 6.789,-14.809 6.789,-26.559 l 26.531,0 c 0,20.09 -3.395,34.289 -14.5,45.098 -8.313,8 -20.367,12.652 -36.469,12.652 -14.523,0 -26.273,-4.652 -34.91,-12.652 -11.082,-10.199 -16.656,-25.93 -16.656,-45.098 0,-33.383 7.414,-45.742 29.926,-55.031 l 25.058,-10.18 c 17.926,-7.4098 21.637,-15.1403 21.637,-40.4802 0,-14.5195 -1.238,-22.8906 -7.106,-29.3789 -4.019,-4.3125 -9.886,-7.082 -18.875,-7.082 -8.332,0 -14.519,2.7695 -18.242,6.793 -5.863,6.1797 -7.406,14.2187 -7.406,28.7578 l -26.535,0 c 0,-23.5078 3.394,-36.1914 13.574,-46.3516 8.641,-8.63669 21.617,-13.257788 38.609,-13.257788 17.625,0 30.606,5.230468 38.938,13.257788 10.484,10.4922 13.578,25.0117 13.578,47.8516 m 138.1,-4.6016 -26.209,0 c -0.329,-9.289 -2.168,-18.8789 -7.118,-25.3672 -3.418,-4.3125 -8.976,-7.7226 -17.32,-7.7226 -8.66,0 -14.523,3.4101 -18.246,8.3515 -7.734,10.5118 -8.949,28.129 -8.949,80.3402 0,52.242 1.215,69.859 8.949,80.371 3.723,4.937 9.586,8.34 18.246,8.34 8.344,0 13.902,-3.403 17.32,-7.743 5.243,-6.488 6.789,-15.757 7.118,-25.007 l 26.209,0 c -0.3,17.91 -5.54,33.668 -15.721,43.558 -8.641,8.321 -19.481,12.942 -34.926,12.942 -17.316,0 -29.375,-6.481 -37.683,-16.039 -14.5,-16.692 -16.043,-35.52 -16.043,-96.422 0,-60.8714 1.543,-79.6995 16.043,-96.3909 C 929.578,6.48047 941.637,0 958.953,0 c 14.524,0 25.359,4.30859 33.996,12.0312 10.781,9.8672 16.351,26.25 16.651,44.7969 m 139.34,-54.36716 0,219.96906 -26.53,0 0,-96.098 -48.85,0 0,96.098 -26.53,0 0,-219.96906 26.53,0 0,100.09806 48.85,0 0,-100.09806 26.53,0 z m 130.23,0 0,23.76956 -58.41,0 0,74.8005 50.36,0 0,23.75 -50.36,0 0,73.879 58.41,0 0,23.77 -84.92,0 0,-219.96906 84.92,0 z m 210.06,0 0,219.96906 -26.5,0 0,-96.098 -48.86,0 0,96.098 -26.55,0 0,-219.96906 26.55,0 0,100.09806 48.86,0 0,-100.09806 26.5,0 z M 1636.92,112.43 c 0,60.902 -1.84,80.66 -16.03,96.422 -8.63,9.558 -20.39,16.039 -37.71,16.039 -17.29,0 -29.06,-6.481 -37.68,-16.039 -14.21,-15.762 -16.06,-35.52 -16.06,-96.422 0,-60.8714 1.85,-80.6292 16.06,-96.3909 C 1554.12,6.48047 1565.89,0 1583.18,0 c 17.32,0 29.08,6.48047 37.71,16.0391 14.19,15.7617 16.03,35.5195 16.03,96.3909 m -26.51,0 c 0,-52.2112 -1.54,-69.8284 -9.3,-80.3402 -3.7,-4.9414 -9.26,-8.3515 -17.93,-8.3515 -8.66,0 -14.52,3.4101 -18.24,8.3515 -7.71,10.5118 -8.97,28.129 -8.97,80.3402 0,52.242 1.26,69.859 8.97,80.371 3.72,4.937 9.58,8.34 18.24,8.34 8.67,0 14.23,-3.403 17.93,-8.34 7.76,-10.512 9.3,-28.129 9.3,-80.371 m 168.73,-55.6019 -26.21,0 c -0.31,-9.289 -2.19,-18.8789 -7.12,-25.3672 -3.39,-4.3125 -8.98,-7.7226 -17.32,-7.7226 -8.67,0 -14.53,3.4101 -18.25,8.3515 -7.71,10.5118 -8.95,28.129 -8.95,80.3402 0,52.242 1.24,69.859 8.95,80.371 3.72,4.937 9.58,8.34 18.25,8.34 8.34,0 13.93,-3.403 17.32,-7.743 5.27,-6.488 6.81,-15.757 7.12,-25.007 l 26.21,0 c -0.32,17.91 -5.55,33.668 -15.75,43.558 -8.63,8.321 -19.43,12.942 -34.9,12.942 -17.3,0 -29.37,-6.481 -37.71,-16.039 -14.48,-16.692 -16.03,-35.52 -16.03,-96.422 0,-60.8714 1.55,-79.6995 16.03,-96.3909 C 1699.12,6.48047 1711.19,0 1728.49,0 c 14.54,0 25.34,4.30859 33.98,12.0312 10.8,9.8672 16.35,26.25 16.67,44.7969 m 140.97,-54.36716 0,219.96906 -26.55,0 0,-96.098 -48.84,0 0,96.098 -26.53,0 0,-219.96906 26.53,0 0,100.09806 48.84,0 0,-100.09806 26.55,0 z m 143.77,58.96876 c 0,34.6211 -5.87,50.0703 -30.86,60.2813 l -24.76,10.199 c -17.59,7.418 -21.01,13.91 -21.01,35.539 0,11.449 2.48,20.41 7.73,26.281 3.72,4.008 9.27,6.782 16.98,6.782 8.36,0 14.25,-2.774 17.95,-7.422 5.57,-6.789 6.81,-14.809 6.81,-26.559 l 26.54,0 c 0,20.09 -3.41,34.289 -14.5,45.098 -8.34,8 -20.38,12.652 -36.47,12.652 -14.54,0 -26.26,-4.652 -34.93,-12.652 -11.09,-10.199 -16.66,-25.93 -16.66,-45.098 0,-33.383 7.42,-45.742 29.97,-55.031 l 25.03,-10.18 c 17.93,-7.4098 21.63,-15.1403 21.63,-40.4802 0,-14.5195 -1.24,-22.8906 -7.11,-29.3789 -4.01,-4.3125 -9.9,-7.082 -18.84,-7.082 -8.37,0 -14.55,2.7695 -18.25,6.793 -5.88,6.1797 -7.45,14.2187 -7.45,28.7578 l -26.54,0 c 0,-23.5078 3.43,-36.1914 13.58,-46.3516 8.66,-8.63669 21.63,-13.257788 38.66,-13.257788 17.6,0 30.57,5.230468 38.91,13.257788 10.49,10.4922 13.59,25.0117 13.59,47.8516 m 138.1,-4.6016 -26.25,0 c -0.27,-9.289 -2.17,-18.8789 -7.08,-25.3672 -3.41,-4.3125 -8.97,-7.7226 -17.32,-7.7226 -8.66,0 -14.54,3.4101 -18.27,8.3515 -7.71,10.5118 -8.95,28.129 -8.95,80.3402 0,52.242 1.24,69.859 8.95,80.371 3.73,4.937 9.61,8.34 18.27,8.34 8.35,0 13.91,-3.403 17.32,-7.743 5.26,-6.488 6.81,-15.757 7.08,-25.007 l 26.25,0 c -0.32,17.91 -5.57,33.668 -15.74,43.558 -8.66,8.321 -19.44,12.942 -34.91,12.942 -17.32,0 -29.37,-6.481 -37.71,-16.039 -14.5,-16.692 -16.05,-35.52 -16.05,-96.422 0,-60.8714 1.55,-79.6995 16.05,-96.3909 C 2121.96,6.48047 2134.01,0 2151.33,0 c 14.52,0 25.35,4.30859 33.96,12.0312 10.82,9.8672 16.37,26.25 16.69,44.7969 m 139.32,-54.36716 0,219.96906 -26.54,0 0,-96.098 -48.82,0 0,96.098 -26.55,0 0,-219.96906 26.55,0 0,100.09806 48.82,0 0,-100.09806 26.54,0 z m 145.87,50.01956 0,169.9495 -26.54,0 0,-171.4886 c 0,-17.293 -11.15,-27.2031 -24.43,-27.2031 -13.3,0 -24.13,9.9101 -24.13,27.2031 l 0,171.4886 -26.52,0 0,-169.9495 c 0,-16.0821 5.23,-29.0313 14.21,-37.9688 C 2409.32,4.94141 2421.99,0 2436.2,0 c 14.23,0 27.2,4.94141 36.76,14.5117 8.95,8.9375 14.21,21.8867 14.21,37.9688 m 129.18,-50.01956 0,23.76956 -58.41,0 0,196.1995 -26.52,0 0,-219.96906 84.93,0 z m 121.53,0 0,23.76956 -58.42,0 0,74.8005 50.36,0 0,23.75 -50.36,0 0,73.879 58.42,0 0,23.77 -84.91,0 0,-219.96906 84.91,0 z m 246.87,0 0,219.96906 -25.03,0 -44.16,-122.348 -44.52,122.348 -24.99,0 0,-219.96906 26.53,0 0,154.14106 34.32,-100.3715 16.37,0 34.93,102.8515 0,-156.62106 26.55,0 z m 70.72,219.96906 -26.51,0 0,-219.94953 26.51,0 0,219.94953 z m 136.84,-23.77 0,23.77 -100.38,0 0,-23.77 37.1,0 0,-196.19906 26.53,0 0,196.19906 36.75,0 z m 130.17,0 0,23.77 -100.35,0 0,-23.77 37.07,0 0,-196.19906 26.52,0 0,196.19906 36.76,0 z M 3443.9,2.46094 l 0,23.76956 -58.41,0 0,74.8005 50.38,0 0,23.75 -50.38,0 0,73.879 58.41,0 0,23.77 -84.93,0 0,-219.96906 84.93,0 z m 124.44,0 0,23.76956 -58.41,0 0,196.1995 -26.52,0 0,-219.96906 84.93,0 z m 138.54,0 0,219.96906 -26.55,0 0,-96.098 -48.85,0 0,96.098 -26.54,0 0,-219.96906 26.54,0 0,100.09806 48.85,0 0,-100.09806 26.55,0 z m 130.23,0 0,23.76956 -58.41,0 0,74.8005 50.36,0 0,23.75 -50.36,0 0,73.879 58.41,0 0,23.77 -84.95,0 0,-219.96906 84.95,0 z m 138.52,58.96876 c 0,34.6211 -5.87,50.0703 -30.87,60.2813 l -24.75,10.199 c -17.61,7.418 -21.02,13.91 -21.02,35.539 0,11.449 2.48,20.41 7.72,26.281 3.74,4.008 9.29,6.782 17.05,6.782 8.32,0 14.2,-2.774 17.9,-7.422 5.58,-6.789 6.82,-14.809 6.82,-26.559 l 26.51,0 c 0,20.09 -3.38,34.289 -14.47,45.098 -8.35,8 -20.39,12.652 -36.5,12.652 -14.52,0 -26.25,-4.652 -34.91,-12.652 -11.09,-10.199 -16.64,-25.93 -16.64,-45.098 0,-33.383 7.4,-45.742 29.93,-55.031 l 25.03,-10.18 c 17.95,-7.4098 21.67,-15.1403 21.67,-40.4802 0,-14.5195 -1.26,-22.8906 -7.12,-29.3789 -4.02,-4.3125 -9.9,-7.082 -18.85,-7.082 -8.35,0 -14.53,2.7695 -18.25,6.793 -5.89,6.1797 -7.42,14.2187 -7.42,28.7578 l -26.52,0 c 0,-23.5078 3.39,-36.1914 13.57,-46.3516 8.62,-8.63669 21.61,-13.257788 38.62,-13.257788 17.6,0 30.57,5.230468 38.92,13.257788 10.49,10.4922 13.58,25.0117 13.58,47.8516 m 140.53,0 c 0,34.6211 -5.86,50.0703 -30.85,60.2813 l -24.75,10.199 c -17.6,7.418 -21.02,13.91 -21.02,35.539 0,11.449 2.48,20.41 7.71,26.281 3.75,4.008 9.29,6.782 17.05,6.782 8.32,0 14.21,-2.774 17.91,-7.422 5.56,-6.789 6.8,-14.809 6.8,-26.559 l 26.53,0 c 0,20.09 -3.39,34.289 -14.49,45.098 -8.34,8 -20.38,12.652 -36.48,12.652 -14.52,0 -26.25,-4.652 -34.91,-12.652 -11.1,-10.199 -16.64,-25.93 -16.64,-45.098 0,-33.383 7.39,-45.742 29.94,-55.031 L 4068,101.32 c 17.93,-7.4098 21.65,-15.1403 21.65,-40.4802 0,-14.5195 -1.27,-22.8906 -7.13,-29.3789 -4.01,-4.3125 -9.9,-7.082 -18.86,-7.082 -8.34,0 -14.52,2.7695 -18.24,6.793 -5.88,6.1797 -7.42,14.2187 -7.42,28.7578 l -26.52,0 c 0,-23.5078 3.38,-36.1914 13.58,-46.3516 8.61,-8.63669 21.6,-13.257788 38.6,-13.257788 17.62,0 30.59,5.230468 38.93,13.257788 10.49,10.4922 13.57,25.0117 13.57,47.8516 m 124.77,-58.96876 0,23.76956 -58.42,0 0,74.8005 50.38,0 0,23.75 -50.38,0 0,73.879 58.42,0 0,23.77 -84.93,0 0,-219.96906 84.93,0 z m 146.99,0 0,219.96906 -26.52,0 0,-150.4612 -56.29,150.4612 -24.68,0 0,-219.96906 26.52,0 0,150.46106 56.9,-150.46106 24.07,0"
             style="fill:#4a5c66;fill-opacity:1;fill-rule:nonzero;stroke:none"
             id="path3052" />
          <path
             inkscape:connector-curvature="0"
             d="m 1087.65,451.801 24.5703,0 0,1007.95 -24.5703,0 0,-1007.95 z"
             style="fill:#4a5c66;fill-opacity:1;fill-rule:nonzero;stroke:none"
             id="path3054" />
        </g>
      </g>
    </g>
    <text
       xml:space="preserve"
       style="font-size:40px;font-style:normal;font-variant:normal;font-weight:600;font-stretch:normal;text-align:start;line-height:125%;letter-spacing:0px;word-spacing:0px;writing-mode:lr-tb;text-anchor:start;fill:#000000;fill-opacity:1;stroke:none;font-family:Latin Modern Sans Demi Cond;-inkscape-font-specification:Latin Modern Sans Demi Cond Semi-Bold"
       x="106.28375"
       y="1269.8822"
       id="text3198-6"
       sodipodi:linespacing="125%"><tspan
         sodipodi:role="line"
         id="tspan3200-0"
         x="106.28375"
         y="1269.8822"><tspan
   style="font-size:40px;font-style:normal;font-variant:normal;font-weight:600;font-stretch:normal;text-align:start;line-height:125%;writing-mode:lr-tb;text-anchor:start;fill:#80ba24;fill-opacity:1;font-family:Latin Modern Sans Demi Cond;-inkscape-font-specification:Latin Modern Sans Demi Cond Semi-Bold"
   id="tspan3972-0">ARSnova</tspan>widget</tspan></text>
    <g
       id="g3991"
       transform="translate(-2,-150)">
      <path
         d="m 138.81249,1102.1238 -5.35156,14.5118 10.72266,0 -5.3711,-14.5118 m -2.22656,-3.8867 4.47266,0 11.11328,29.1602 -4.10157,0 -2.65625,-7.4805 -13.14453,0 -2.65625,7.4805 -4.16015,0 11.13281,-29.1602"
         style="font-size:40px;font-style:normal;font-variant:normal;font-weight:normal;font-stretch:normal;text-align:start;line-height:125%;letter-spacing:0px;word-spacing:0px;writing-mode:lr-tb;text-anchor:start;fill:#666666;fill-opacity:1;stroke:none;filter:url(#filter3987);font-family:DejaVu Sans;-inkscape-font-specification:DejaVu Sans"
         id="path3125"
         inkscape:connector-curvature="0" />
      <path
         d="m 170.23827,1113.7254 c 0.84634,0.2865 1.66665,0.8985 2.46094,1.8359 0.80727,0.9376 1.61456,2.2266 2.42188,3.8672 l 4.0039,7.9688 -4.23828,0 -3.73047,-7.4805 c -0.96356,-1.9531 -1.90106,-3.2487 -2.8125,-3.8867 -0.89845,-0.638 -2.12892,-0.957 -3.6914,-0.957 l -4.29688,0 0,12.3242 -3.94531,0 0,-29.1602 8.90625,0 c 3.33332,10e-5 5.82029,0.6967 7.46094,2.0899 1.6406,1.3932 2.46091,3.4961 2.46093,6.3086 -2e-5,1.8359 -0.42971,3.3594 -1.28906,4.5703 -0.84637,1.2109 -2.08335,2.0508 -3.71094,2.5195 m -9.88281,-12.2461 0,10.3516 4.96094,0 c 1.90103,0 3.33332,-0.4362 4.29687,-1.3086 0.97655,-0.8854 1.46483,-2.181 1.46485,-3.8867 -2e-5,-1.7057 -0.4883,-2.9883 -1.46485,-3.8477 -0.96355,-0.8724 -2.39584,-1.3086 -4.29687,-1.3086 l -4.96094,0"
         style="font-size:40px;font-style:normal;font-variant:normal;font-weight:normal;font-stretch:normal;text-align:start;line-height:125%;letter-spacing:0px;word-spacing:0px;writing-mode:lr-tb;text-anchor:start;fill:#666666;fill-opacity:1;stroke:none;filter:url(#filter3983);font-family:DejaVu Sans;-inkscape-font-specification:DejaVu Sans"
         id="path3127"
         inkscape:connector-curvature="0" />
      <path
         d="m 201.70312,1099.1942 0,3.8476 c -1.49742,-0.7161 -2.91018,-1.25 -4.23828,-1.6015 -1.32814,-0.3516 -2.6107,-0.5274 -3.84766,-0.5274 -2.14845,0 -3.8086,0.4167 -4.98047,1.25 -1.15886,0.8334 -1.73829,2.0183 -1.73828,3.5547 -1e-5,1.2891 0.38411,2.2656 1.15234,2.9297 0.78125,0.651 2.2526,1.1784 4.41407,1.582 l 2.38281,0.4883 c 2.94269,0.5599 5.11066,1.5495 6.5039,2.9687 1.40623,1.4063 2.10936,3.2943 2.10938,5.6641 -2e-5,2.8255 -0.95054,4.9675 -2.85156,6.4258 -1.88804,1.4583 -4.66148,2.1875 -8.32032,2.1875 -1.38021,0 -2.85157,-0.1563 -4.41406,-0.4688 -1.54948,-0.3125 -3.15755,-0.7747 -4.82422,-1.3867 l 0,-4.0625 c 1.60156,0.8985 3.17057,1.5755 4.70703,2.0313 1.53645,0.4557 3.04687,0.6836 4.53125,0.6836 2.25259,0 3.99087,-0.4427 5.21485,-1.3282 1.22394,-0.8854 1.83592,-2.1484 1.83594,-3.789 -2e-5,-1.4323 -0.44273,-2.5521 -1.32813,-3.3594 -0.87241,-0.8073 -2.31121,-1.4127 -4.31641,-1.8164 l -2.40234,-0.4688 c -2.94272,-0.5859 -5.07162,-1.5038 -6.38672,-2.7539 -1.31511,-1.2499 -1.97266,-2.9882 -1.97265,-5.2148 -1e-5,-2.5781 0.90494,-4.6094 2.71484,-6.0938 1.82291,-1.4843 4.32942,-2.2265 7.51953,-2.2265 1.36717,0 2.7604,0.1237 4.17969,0.3711 1.41925,0.2474 2.87107,0.6185 4.35547,1.1133"
         style="font-size:40px;font-style:normal;font-variant:normal;font-weight:normal;font-stretch:normal;text-align:start;line-height:125%;letter-spacing:0px;word-spacing:0px;writing-mode:lr-tb;text-anchor:start;fill:#666666;fill-opacity:1;stroke:none;filter:url(#filter3979);font-family:DejaVu Sans;-inkscape-font-specification:DejaVu Sans"
         id="path3129"
         inkscape:connector-curvature="0" />
      <path
         d="m 227.64062,1114.1942 0,13.2031 -3.59375,0 0,-13.086 c -2e-5,-2.0703 -0.40367,-3.6197 -1.21094,-4.6484 -0.80731,-1.0286 -2.01824,-1.543 -3.63281,-1.543 -1.94012,0 -3.47006,0.6185 -4.58985,1.8555 -1.1198,1.237 -1.67969,2.9232 -1.67968,5.0586 l 0,12.3633 -3.61329,0 0,-21.875 3.61329,0 0,3.3984 c 0.85936,-1.3151 1.86848,-2.2981 3.02734,-2.9492 1.17186,-0.651 2.51952,-0.9765 4.04297,-0.9766 2.513,10e-5 4.41404,0.7813 5.70312,2.3438 1.28904,1.5495 1.93358,3.8346 1.9336,6.8554"
         style="font-size:40px;font-style:normal;font-variant:normal;font-weight:normal;font-stretch:normal;text-align:start;line-height:125%;letter-spacing:0px;word-spacing:0px;writing-mode:lr-tb;text-anchor:start;fill:#666666;fill-opacity:1;stroke:none;filter:url(#filter3975);font-family:DejaVu Sans;-inkscape-font-specification:DejaVu Sans"
         id="path3131"
         inkscape:connector-curvature="0" />
      <path
         d="m 243.32421,1108.0418 c -1.92709,0 -3.45053,0.7552 -4.57031,2.2656 -1.1198,1.4975 -1.67969,3.5547 -1.67969,6.1719 0,2.6172 0.55338,4.681 1.66016,6.1914 1.11978,1.4974 2.64973,2.2461 4.58984,2.2461 1.91405,0 3.43098,-0.7552 4.55078,-2.2656 1.11978,-1.5104 1.67967,-3.5677 1.67969,-6.1719 -2e-5,-2.5911 -0.55991,-4.6419 -1.67969,-6.1523 -1.1198,-1.5234 -2.63673,-2.2852 -4.55078,-2.2852 m 0,-3.0469 c 3.12499,10e-5 5.57941,1.0157 7.36328,3.0469 1.78384,2.0313 2.67576,4.8438 2.67578,8.4375 -2e-5,3.5808 -0.89194,6.3932 -2.67578,8.4375 -1.78387,2.0313 -4.23829,3.0469 -7.36328,3.0469 -3.13803,0 -5.59896,-1.0156 -7.38281,-3.0469 -1.77084,-2.0443 -2.65625,-4.8567 -2.65625,-8.4375 0,-3.5937 0.88541,-6.4062 2.65625,-8.4375 1.78385,-2.0312 4.24478,-3.0468 7.38281,-3.0469"
         style="font-size:40px;font-style:normal;font-variant:normal;font-weight:normal;font-stretch:normal;text-align:start;line-height:125%;letter-spacing:0px;word-spacing:0px;writing-mode:lr-tb;text-anchor:start;fill:#666666;fill-opacity:1;stroke:none;filter:url(#filter3971);font-family:DejaVu Sans;-inkscape-font-specification:DejaVu Sans"
         id="path3133"
         inkscape:connector-curvature="0" />
      <path
         d="m 256.72265,1105.5223 3.80859,0 6.83594,18.3594 6.83594,-18.3594 3.80859,0 -8.20312,21.875 -4.88282,0 -8.20312,-21.875"
         style="font-size:40px;font-style:normal;font-variant:normal;font-weight:normal;font-stretch:normal;text-align:start;line-height:125%;letter-spacing:0px;word-spacing:0px;writing-mode:lr-tb;text-anchor:start;fill:#666666;fill-opacity:1;stroke:none;filter:url(#filter3967);font-family:DejaVu Sans;-inkscape-font-specification:DejaVu Sans"
         id="path3135"
         inkscape:connector-curvature="0" />
      <path
         d="m 292.91405,1116.4012 c -2.90365,0 -4.91537,0.332 -6.03515,0.9961 -1.1198,0.6641 -1.67969,1.7969 -1.67969,3.3984 0,1.2761 0.41666,2.2917 1.25,3.0469 0.84635,0.7422 1.99218,1.1133 3.4375,1.1133 1.99218,0 3.58723,-0.7031 4.78516,-2.1094 1.21092,-1.4193 1.81639,-3.3008 1.8164,-5.6445 l 0,-0.8008 -3.57422,0 m 7.16797,-1.4844 0,12.4805 -3.59375,0 0,-3.3203 c -0.82033,1.3281 -1.84246,2.3112 -3.0664,2.9492 -1.22397,0.625 -2.72137,0.9375 -4.49219,0.9375 -2.23959,0 -4.02344,-0.625 -5.35156,-1.875 -1.31511,-1.263 -1.97266,-2.9492 -1.97266,-5.0586 0,-2.4609 0.82031,-4.3164 2.46094,-5.5664 1.65364,-1.25 4.11457,-1.875 7.38281,-1.875 l 5.03906,0 0,-0.3516 c -10e-6,-1.6536 -0.54689,-2.9296 -1.64062,-3.8281 -1.08075,-0.9114 -2.60418,-1.3672 -4.57031,-1.3672 -1.25001,0 -2.46746,0.1498 -3.65235,0.4492 -1.1849,0.2995 -2.32422,0.7487 -3.41797,1.3477 l 0,-3.3203 c 1.3151,-0.5078 2.59114,-0.8854 3.82813,-1.1328 1.23697,-0.2604 2.44139,-0.3906 3.61328,-0.3907 3.16405,10e-5 5.52733,0.8204 7.08984,2.461 1.56248,1.6406 2.34373,4.1276 2.34375,7.4609"
         style="font-size:40px;font-style:normal;font-variant:normal;font-weight:normal;font-stretch:normal;text-align:start;line-height:125%;letter-spacing:0px;word-spacing:0px;writing-mode:lr-tb;text-anchor:start;fill:#666666;fill-opacity:1;stroke:none;filter:url(#filter3963);font-family:DejaVu Sans;-inkscape-font-specification:DejaVu Sans"
         id="path3137"
         inkscape:connector-curvature="0" />
      <path
         d="m 311.60546,1101.4793 0,22.6758 4.76563,0 c 4.02342,0 6.96612,-0.9115 8.82812,-2.7344 1.87498,-1.8229 2.81248,-4.7005 2.8125,-8.6328 -2e-5,-3.9062 -0.93752,-6.7643 -2.8125,-8.5742 -1.862,-1.8229 -4.8047,-2.7344 -8.82812,-2.7344 l -4.76563,0 m -3.94531,-3.2422 8.10547,0 c 5.65102,10e-5 9.79815,1.1784 12.4414,3.5352 2.64321,2.3438 3.96482,6.0156 3.96485,11.0156 -3e-5,5.0261 -1.32815,8.7175 -3.98438,11.0742 -2.65627,2.3568 -6.79689,3.5352 -12.42187,3.5352 l -8.10547,0 0,-29.1602"
         style="font-size:40px;font-style:normal;font-variant:normal;font-weight:600;font-stretch:normal;text-align:start;line-height:125%;letter-spacing:0px;word-spacing:0px;writing-mode:lr-tb;text-anchor:start;fill:#666666;fill-opacity:1;stroke:none;filter:url(#filter3959);font-family:DejaVu Sans;-inkscape-font-specification:DejaVu Sans"
         id="path3139"
         inkscape:connector-curvature="0" />
      <path
         d="m 356.99609,1115.5613 0,1.7578 -16.52344,0 c 0.15624,2.474 0.89843,4.362 2.22656,5.6641 1.34114,1.2891 3.20311,1.9336 5.58594,1.9336 1.38019,0 2.71483,-0.1693 4.0039,-0.5078 1.30207,-0.3385 2.59113,-0.8464 3.86719,-1.5234 l 0,3.3984 c -1.28908,0.5469 -2.61069,0.9635 -3.96484,1.25 -1.35418,0.2865 -2.72788,0.4297 -4.1211,0.4297 -3.48959,0 -6.25651,-1.0156 -8.30078,-3.0469 -2.03125,-2.0312 -3.04687,-4.7786 -3.04687,-8.2422 0,-3.5807 0.96354,-6.4192 2.89062,-8.5156 1.9401,-2.1094 4.55078,-3.164 7.83203,-3.1641 2.9427,10e-5 5.26691,0.9506 6.97266,2.8516 1.71873,1.888 2.5781,4.4596 2.57813,7.7148 m -3.59375,-1.0547 c -0.0261,-1.9661 -0.57945,-3.5351 -1.66016,-4.707 -1.06772,-1.1718 -2.48699,-1.7578 -4.25781,-1.7578 -2.00522,0 -3.61329,0.5664 -4.82422,1.6992 -1.19792,1.1329 -1.88803,2.7279 -2.07031,4.7852 l 12.8125,-0.02"
         style="font-size:40px;font-style:normal;font-variant:normal;font-weight:600;font-stretch:normal;text-align:start;line-height:125%;letter-spacing:0px;word-spacing:0px;writing-mode:lr-tb;text-anchor:start;fill:#666666;fill-opacity:1;stroke:none;filter:url(#filter3955);font-family:DejaVu Sans;-inkscape-font-specification:DejaVu Sans"
         id="path3141"
         inkscape:connector-curvature="0" />
      <path
         d="m 376.83984,1106.1668 0,3.3985 c -1.01565,-0.5209 -2.07033,-0.9115 -3.16407,-1.1719 -1.09376,-0.2604 -2.22657,-0.3906 -3.39843,-0.3906 -1.78387,0 -3.12501,0.2734 -4.02344,0.8203 -0.88542,0.5469 -1.32813,1.3672 -1.32813,2.4609 0,0.8334 0.31901,1.4909 0.95703,1.9727 0.63802,0.4687 1.92057,0.9179 3.84766,1.3476 l 1.23047,0.2735 c 2.55207,0.5468 4.36196,1.3216 5.42969,2.3242 1.08071,0.9896 1.62107,2.3763 1.62109,4.1601 -2e-5,2.0313 -0.80731,3.6394 -2.42187,4.8242 -1.60158,1.1849 -3.80861,1.7774 -6.6211,1.7774 -1.17188,0 -2.39584,-0.1172 -3.67187,-0.3516 -1.26303,-0.2213 -2.59766,-0.5599 -4.00391,-1.0156 l 0,-3.7109 c 1.32812,0.6901 2.63672,1.2109 3.92578,1.5625 1.28906,0.3385 2.5651,0.5078 3.82813,0.5078 1.69269,0 2.99478,-0.2865 3.90625,-0.8594 0.91144,-0.5859 1.36717,-1.4062 1.36718,-2.4609 -10e-6,-0.9766 -0.33204,-1.7253 -0.99609,-2.2461 -0.65105,-0.5209 -2.08985,-1.0222 -4.31641,-1.5039 l -1.25,-0.293 c -2.22656,-0.4687 -3.83464,-1.1849 -4.82421,-2.1484 -0.98959,-0.9766 -1.48438,-2.3112 -1.48438,-4.0039 0,-2.0573 0.72916,-3.6459 2.1875,-4.7657 1.45833,-1.1197 3.52864,-1.6796 6.21094,-1.6797 1.32811,10e-5 2.57811,0.098 3.75,0.293 1.17186,0.1953 2.25259,0.4883 3.24219,0.8789"
         style="font-size:40px;font-style:normal;font-variant:normal;font-weight:600;font-stretch:normal;text-align:start;line-height:125%;letter-spacing:0px;word-spacing:0px;writing-mode:lr-tb;text-anchor:start;fill:#666666;fill-opacity:1;stroke:none;filter:url(#filter3951);font-family:DejaVu Sans;-inkscape-font-specification:DejaVu Sans"
         id="path3143"
         inkscape:connector-curvature="0" />
      <path
         d="m 383.61718,1097.0067 3.61328,0 0,17.9492 10.72266,-9.4336 4.58984,0 -11.60156,10.2344 12.08984,11.6406 -4.6875,0 -11.11328,-10.6836 0,10.6836 -3.61328,0 0,-30.3906"
         style="font-size:40px;font-style:normal;font-variant:normal;font-weight:600;font-stretch:normal;text-align:start;line-height:125%;letter-spacing:0px;word-spacing:0px;writing-mode:lr-tb;text-anchor:start;fill:#666666;fill-opacity:1;stroke:none;filter:url(#filter3947);font-family:DejaVu Sans;-inkscape-font-specification:DejaVu Sans"
         id="path3145"
         inkscape:connector-curvature="0" />
      <path
         d="m 410.51171,1099.3113 0,6.211 7.40234,0 0,2.793 -7.40234,0 0,11.875 c -10e-6,1.7838 0.24088,2.9296 0.72266,3.4375 0.49478,0.5078 1.49087,0.7617 2.98828,0.7617 l 3.6914,0 0,3.0078 -3.6914,0 c -2.77345,0 -4.68751,-0.5143 -5.74219,-1.543 -1.05469,-1.0417 -1.58203,-2.9297 -1.58203,-5.664 l 0,-11.875 -2.63672,0 0,-2.793 2.63672,0 0,-6.211 3.61328,0"
         style="font-size:40px;font-style:normal;font-variant:normal;font-weight:600;font-stretch:normal;text-align:start;line-height:125%;letter-spacing:0px;word-spacing:0px;writing-mode:lr-tb;text-anchor:start;fill:#666666;fill-opacity:1;stroke:none;filter:url(#filter3943);font-family:DejaVu Sans;-inkscape-font-specification:DejaVu Sans"
         id="path3147"
         inkscape:connector-curvature="0" />
      <path
         d="m 431.13671,1108.0418 c -1.92709,0 -3.45053,0.7552 -4.57031,2.2656 -1.1198,1.4975 -1.67969,3.5547 -1.67969,6.1719 0,2.6172 0.55338,4.681 1.66016,6.1914 1.11978,1.4974 2.64973,2.2461 4.58984,2.2461 1.91405,0 3.43098,-0.7552 4.55078,-2.2656 1.11978,-1.5104 1.67967,-3.5677 1.67969,-6.1719 -2e-5,-2.5911 -0.55991,-4.6419 -1.67969,-6.1523 -1.1198,-1.5234 -2.63673,-2.2852 -4.55078,-2.2852 m 0,-3.0469 c 3.12499,10e-5 5.57941,1.0157 7.36328,3.0469 1.78384,2.0313 2.67576,4.8438 2.67578,8.4375 -2e-5,3.5808 -0.89194,6.3932 -2.67578,8.4375 -1.78387,2.0313 -4.23829,3.0469 -7.36328,3.0469 -3.13803,0 -5.59896,-1.0156 -7.38281,-3.0469 -1.77084,-2.0443 -2.65625,-4.8567 -2.65625,-8.4375 0,-3.5937 0.88541,-6.4062 2.65625,-8.4375 1.78385,-2.0312 4.24478,-3.0468 7.38281,-3.0469"
         style="font-size:40px;font-style:normal;font-variant:normal;font-weight:600;font-stretch:normal;text-align:start;line-height:125%;letter-spacing:0px;word-spacing:0px;writing-mode:lr-tb;text-anchor:start;fill:#666666;fill-opacity:1;stroke:none;filter:url(#filter3939);font-family:DejaVu Sans;-inkscape-font-specification:DejaVu Sans"
         id="path3149"
         inkscape:connector-curvature="0" />
      <path
         d="m 450.58984,1124.116 0,11.6016 -3.61329,0 0,-30.1953 3.61329,0 0,3.3203 c 0.7552,-1.3021 1.70572,-2.2656 2.85156,-2.8906 1.15884,-0.638 2.53905,-0.957 4.14062,-0.9571 2.65624,10e-5 4.81118,1.0547 6.46485,3.1641 1.66664,2.1094 2.49997,4.8828 2.5,8.3203 -3e-5,3.4375 -0.83336,6.211 -2.5,8.3203 -1.65367,2.1094 -3.80861,3.1641 -6.46485,3.1641 -1.60157,0 -2.98178,-0.3125 -4.14062,-0.9375 -1.14584,-0.638 -2.09636,-1.6081 -2.85156,-2.9102 m 12.22656,-7.6367 c -2e-5,-2.6432 -0.5469,-4.7135 -1.64063,-6.2109 -1.08074,-1.5104 -2.57163,-2.2656 -4.47265,-2.2657 -1.90106,10e-5 -3.39845,0.7553 -4.49219,2.2657 -1.08074,1.4974 -1.6211,3.5677 -1.62109,6.2109 -10e-6,2.6432 0.54035,4.7201 1.62109,6.2305 1.09374,1.4974 2.59113,2.2461 4.49219,2.2461 1.90102,0 3.39191,-0.7487 4.47265,-2.2461 1.09373,-1.5104 1.64061,-3.5873 1.64063,-6.2305"
         style="font-size:40px;font-style:normal;font-variant:normal;font-weight:600;font-stretch:normal;text-align:start;line-height:125%;letter-spacing:0px;word-spacing:0px;writing-mode:lr-tb;text-anchor:start;fill:#666666;fill-opacity:1;stroke:none;filter:url(#filter3935);font-family:DejaVu Sans;-inkscape-font-specification:DejaVu Sans"
         id="path3151"
         inkscape:connector-curvature="0" />
    </g>
    <text
       xml:space="preserve"
       style="font-size:40px;font-style:normal;font-variant:normal;font-weight:600;font-stretch:normal;text-align:start;line-height:125%;letter-spacing:0px;word-spacing:0px;writing-mode:lr-tb;text-anchor:start;fill:#000000;fill-opacity:1;stroke:none;font-family:Latin Modern Sans Demi Cond;-inkscape-font-specification:Latin Modern Sans Demi Cond Semi-Bold"
       x="121.37891"
       y="976.24109"
       id="text3198-6-8"
       sodipodi:linespacing="125%"><tspan
         sodipodi:role="line"
         id="tspan3200-0-0"
         x="121.37891"
         y="976.24109"
         style="font-size:40px;font-style:normal;font-variant:normal;font-weight:normal;font-stretch:normal;text-align:start;line-height:125%;writing-mode:lr-tb;text-anchor:start;fill:#80ba24;fill-opacity:1;font-family:DejaVu Sans;-inkscape-font-specification:DejaVu Sans">ARSnova<tspan
   style="font-style:normal;font-variant:normal;font-weight:normal;font-stretch:normal;fill:#000000;font-family:DejaVu Sans;-inkscape-font-specification:DejaVu Sans"
   id="tspan3097">Desktop</tspan></tspan></text>
  </g>
</svg>
