<?xml version="1.0" encoding="UTF-8" standalone="no"?>
<!-- Created with Inkscape (http://www.inkscape.org/) -->

<svg
   xmlns:dc="http://purl.org/dc/elements/1.1/"
   xmlns:cc="http://creativecommons.org/ns#"
   xmlns:rdf="http://www.w3.org/1999/02/22-rdf-syntax-ns#"
   xmlns:svg="http://www.w3.org/2000/svg"
   xmlns="http://www.w3.org/2000/svg"
   xmlns:xlink="http://www.w3.org/1999/xlink"
   xmlns:sodipodi="http://sodipodi.sourceforge.net/DTD/sodipodi-0.dtd"
   xmlns:inkscape="http://www.inkscape.org/namespaces/inkscape"
   width="480"
   height="140"
   id="svg2"
   version="1.1"
   inkscape:version="0.48.4 r9939"
   sodipodi:docname="splash.svg"
   inkscape:export-filename="/home/pcvolkmer/Projekte/arsnovadesktop/src/resources/images/splash.png"
   inkscape:export-xdpi="90"
   inkscape:export-ydpi="90">
  <defs
     id="defs4">
    <linearGradient
       id="linearGradient4171">
      <stop
         style="stop-color:#c8c8c8;stop-opacity:1;"
         offset="0"
         id="stop4173" />
      <stop
         style="stop-color:#ffffff;stop-opacity:1;"
         offset="1"
         id="stop4175" />
    </linearGradient>
    <linearGradient
       y2="643.66162"
       x2="203.08711"
       y1="643.66162"
       x1="162.55586"
       gradientTransform="matrix(1.44,0,0,1.44,-173.22604,-259.83899)"
       gradientUnits="userSpaceOnUse"
       id="linearGradient3212"
       xlink:href="#linearGradientGreenBorder"
       inkscape:collect="always" />
    <linearGradient
       y2="643.66162"
       x2="203.08711"
       y1="643.66162"
       x1="162.55586"
       gradientTransform="matrix(1.44,0,0,1.44,-173.22604,-259.83899)"
       gradientUnits="userSpaceOnUse"
       id="linearGradient3210"
       xlink:href="#linearGradientGreenBody"
       inkscape:collect="always" />
    <linearGradient
       id="linearGradientGreenBorder">
      <stop
         id="stop3837"
         offset="0"
         style="stop-color:#afe060;stop-opacity:1;" />
      <stop
         style="stop-color:#80ba24;stop-opacity:1;"
         offset="0.21807227"
         id="stop3843" />
      <stop
         id="stop3839"
         offset="1"
         style="stop-color:#5c861a;stop-opacity:1;" />
    </linearGradient>
    <linearGradient
       id="linearGradient4031">
      <stop
         id="stop4033"
         offset="0"
         style="stop-color:#ffffff;stop-opacity:0.52903223;" />
      <stop
         id="stop4035"
         offset="1"
         style="stop-color:#ffffff;stop-opacity:0;" />
    </linearGradient>
    <linearGradient
       y2="200.10072"
       x2="336.45895"
       y1="171.18916"
       x1="336.44302"
       gradientUnits="userSpaceOnUse"
       id="linearGradient4009"
       xlink:href="#linearGradientWhite"
       inkscape:collect="always" />
    <linearGradient
       id="linearGradientGreenBody">
      <stop
         style="stop-color:#afe060;stop-opacity:1;"
         offset="0"
         id="stop3855" />
      <stop
         id="stop3857"
         offset="0.32912764"
         style="stop-color:#80ba24;stop-opacity:1;" />
      <stop
         style="stop-color:#5c861a;stop-opacity:1;"
         offset="1"
         id="stop3859" />
    </linearGradient>
    <linearGradient
       id="linearGradientWhite">
      <stop
         id="stop4417"
         offset="0"
         style="stop-color:#ffffff;stop-opacity:0.52903223;" />
      <stop
         id="stop4419"
         offset="1"
         style="stop-color:#ffffff;stop-opacity:0;" />
    </linearGradient>
    <linearGradient
       y2="723.81677"
       x2="382.03867"
       y1="695.95337"
       x1="382.62448"
       gradientTransform="matrix(1.44,0,0,1.44,-295.78984,-251.1368)"
       gradientUnits="userSpaceOnUse"
       id="linearGradient3144"
       xlink:href="#linearGradientWhite"
       inkscape:collect="always" />
    <clipPath
       clipPathUnits="userSpaceOnUse"
       id="clipPath3020">
      <path
         inkscape:connector-curvature="0"
         d="M 0,1459.77 0,0 l 4387.92,0 0,1459.77 -4387.92,0 z"
         id="path3022" />
    </clipPath>
    <linearGradient
       inkscape:collect="always"
       xlink:href="#linearGradient4171"
       id="linearGradient4177"
       x1="482"
       y1="-1"
       x2="461"
       y2="80"
       gradientUnits="userSpaceOnUse"
       gradientTransform="matrix(1.4842768,0,0,0.94285714,-236.45283,916.36218)" />
    <linearGradient
       inkscape:collect="always"
       xlink:href="#linearGradient4171-2"
       id="linearGradient4177-8"
       x1="482"
       y1="-1"
       x2="461"
       y2="80"
       gradientUnits="userSpaceOnUse"
       gradientTransform="matrix(1.509434,0,0,1,-244.5283,912.36218)" />
    <linearGradient
       id="linearGradient4171-2">
      <stop
         style="stop-color:#808080;stop-opacity:1;"
         offset="0"
         id="stop4173-9" />
      <stop
         style="stop-color:#f8f8f8;stop-opacity:1;"
         offset="1"
         id="stop4175-8" />
    </linearGradient>
    <filter
       inkscape:collect="always"
       id="filter4296">
      <feGaussianBlur
         inkscape:collect="always"
         stdDeviation="1.55"
         id="feGaussianBlur4298" />
    </filter>
  </defs>
  <sodipodi:namedview
     id="base"
     pagecolor="#ffffff"
     bordercolor="#666666"
     borderopacity="1.0"
     inkscape:pageopacity="0.0"
     inkscape:pageshadow="2"
     inkscape:zoom="0.70710678"
     inkscape:cx="22.501659"
     inkscape:cy="69.720058"
     inkscape:document-units="px"
     inkscape:current-layer="layer1"
     showgrid="false"
     width="480px"
     inkscape:window-width="1366"
     inkscape:window-height="721"
     inkscape:window-x="-8"
     inkscape:window-y="-4"
     inkscape:window-maximized="1" />
  <metadata
     id="metadata7">
    <rdf:RDF>
      <cc:Work
         rdf:about="">
        <dc:format>image/svg+xml</dc:format>
        <dc:type
           rdf:resource="http://purl.org/dc/dcmitype/StillImage" />
        <dc:title></dc:title>
      </cc:Work>
    </rdf:RDF>
  </metadata>
  <g
     inkscape:label="Ebene 1"
     inkscape:groupmode="layer"
     id="layer1"
     transform="translate(0,-912.36218)">
    <rect
       style="fill:#000000;fill-opacity:0.50196078;stroke:none;filter:url(#filter4296)"
       id="rect4169-2"
       width="480"
       height="140"
       x="3.7199998"
       y="908.64215"
       transform="matrix(0.98473658,0,0,0.9495388,0,53.10346)" />
    <rect
       style="fill:url(#linearGradient4177);fill-opacity:1;stroke:none"
       id="rect4169"
       width="472"
       height="132"
       x="4"
       y="916.36218" />
    <g
       transform="matrix(0.16,0,0,0.16,374.8,878.12709)"
       id="layer1-1"
       inkscape:label="Ebene 1">
      <g
         transform="matrix(0.125,0,0,-0.125,45.755,1018.5978)"
         id="g3016">
        <g
           id="g3018"
           clip-path="url(#clipPath3020)">
          <path
             inkscape:connector-curvature="0"
             d="m 549.855,451.781 183.266,0 0,183.254 -183.266,0 0,-183.254 z"
             style="fill:#80ba24;fill-opacity:1;fill-rule:nonzero;stroke:none"
             id="path3024" />
          <path
             inkscape:connector-curvature="0"
             d="m 549.855,726.664 183.266,0 0,183.277 -183.266,0 0,-183.277 z"
             style="fill:#80ba24;fill-opacity:1;fill-rule:nonzero;stroke:none"
             id="path3026" />
          <path
             inkscape:connector-curvature="0"
             d="m 549.855,1001.59 183.266,0 0,183.254 -183.266,0 0,-183.254 z"
             style="fill:#80ba24;fill-opacity:1;fill-rule:nonzero;stroke:none"
             id="path3028" />
          <path
             inkscape:connector-curvature="0"
             d="m 549.855,1276.49 183.266,0 0,183.258 -183.266,0 0,-183.258 z"
             style="fill:#80ba24;fill-opacity:1;fill-rule:nonzero;stroke:none"
             id="path3030" />
          <path
             inkscape:connector-curvature="0"
             d="m 274.926,1001.59 183.266,0 0,183.254 -183.266,0 0,-183.254 z"
             style="fill:#80ba24;fill-opacity:1;fill-rule:nonzero;stroke:none"
             id="path3032" />
          <path
             inkscape:connector-curvature="0"
             d="m 274.926,1276.49 183.266,0 0,183.258 -183.266,0 0,-183.258 z"
             style="fill:#80ba24;fill-opacity:1;fill-rule:nonzero;stroke:none"
             id="path3034" />
          <path
             inkscape:connector-curvature="0"
             d="m 0.0351562,1001.59 183.2660038,0 0,183.254 -183.2660038,0 0,-183.254 z"
             style="fill:#80ba24;fill-opacity:1;fill-rule:nonzero;stroke:none"
             id="path3036" />
          <path
             inkscape:connector-curvature="0"
             d="m 274.926,451.781 183.266,0 0,183.254 -183.266,0 0,-183.254 z"
             style="fill:#80ba24;fill-opacity:1;fill-rule:nonzero;stroke:none"
             id="path3038" />
          <path
             inkscape:connector-curvature="0"
             d="m 274.926,726.664 183.266,0 0,183.277 -183.266,0 0,-183.277 z"
             style="fill:#80ba24;fill-opacity:1;fill-rule:nonzero;stroke:none"
             id="path3040" />
          <path
             inkscape:connector-curvature="0"
             d="m 0.0351562,451.781 183.2660038,0 0,183.254 -183.2660038,0 0,-183.254 z"
             style="fill:#80ba24;fill-opacity:1;fill-rule:nonzero;stroke:none"
             id="path3042" />
          <path
             inkscape:connector-curvature="0"
             d="m 0.0351562,726.664 183.2660038,0 0,183.277 -183.2660038,0 0,-183.277 z"
             style="fill:#80ba24;fill-opacity:1;fill-rule:nonzero;stroke:none"
             id="path3044" />
          <path
             inkscape:connector-curvature="0"
             d="m 1944.15,1276.49 0,-824.728 -204.39,0 0,824.728 -273.55,0 0,183.26 751.47,0 0,-183.26 -273.53,0"
             style="fill:#80ba24;fill-opacity:1;fill-rule:nonzero;stroke:none"
             id="path3046" />
          <path
             inkscape:connector-curvature="0"
             d="m 3005.59,451.762 0,421.242 -354.41,0 0,-421.242 -204.38,0 0,1008.008 204.38,0 0,-405.81 354.41,0 0,405.81 204.4,0 0,-1008.008 -204.4,0"
             style="fill:#80ba24;fill-opacity:1;fill-rule:nonzero;stroke:none"
             id="path3048" />
          <path
             inkscape:connector-curvature="0"
             d="m 4183.19,451.762 0,571.168 -195.34,-387.848 -147.76,-0.047 -196.6,387.895 0,-571.168 -204.42,0 0,1008.008 201.49,0 273.5,-566.293 272.06,566.293 201.46,0 0,-1008.008 -204.39,0"
             style="fill:#80ba24;fill-opacity:1;fill-rule:nonzero;stroke:none"
             id="path3050" />
          <path
             inkscape:connector-curvature="0"
             d="m 100.367,198.66 0,23.77 -100.367,0 0,-23.77 37.0586,0 0,-196.19906 26.5352,0 0,196.19906 36.7732,0 z M 221.738,2.46094 l 0,23.76956 -58.375,0 0,74.8005 50.36,0 0,23.75 -50.36,0 0,73.879 58.375,0 0,23.77 -84.918,0 0,-219.96906 84.918,0 z m 136.867,54.36716 -26.203,0 c -0.332,-9.289 -2.175,-18.8789 -7.121,-25.3672 -3.41,-4.3125 -8.98,-7.7226 -17.316,-7.7226 -8.656,0 -14.524,3.4101 -18.242,8.3515 -7.735,10.5118 -8.957,28.129 -8.957,80.3402 0,52.242 1.222,69.859 8.957,80.371 3.718,4.937 9.586,8.34 18.242,8.34 8.336,0 13.906,-3.403 17.316,-7.743 5.246,-6.488 6.789,-15.757 7.121,-25.007 l 26.203,0 c -0.293,17.91 -5.539,33.668 -15.718,43.558 -8.641,8.321 -19.473,12.942 -34.922,12.942 -17.32,0 -29.371,-6.481 -37.707,-16.039 -14.477,-16.692 -16.035,-35.52 -16.035,-96.422 0,-60.8714 1.558,-79.6995 16.035,-96.3909 C 278.594,6.48047 290.645,0 307.965,0 c 14.523,0 25.359,4.30859 34,12.0312 10.777,9.8672 16.347,26.25 16.64,44.7969 m 140.981,-54.36716 0,219.96906 -26.527,0 0,-96.098 -48.86,0 0,96.098 -26.531,0 0,-219.96906 26.531,0 0,100.09806 48.86,0 0,-100.09806 26.527,0 z m 152.769,0 0,219.96906 -26.515,0 0,-150.4612 -56.274,150.4612 -24.683,0 0,-219.96906 26.535,0 0,150.46106 56.875,-150.46106 24.062,0 z m 75.399,219.96906 -26.531,0 0,-219.94953 26.531,0 0,219.94953 z M 871.5,61.4297 c 0,34.6211 -5.863,50.0703 -30.855,60.2813 l -24.747,10.199 c -17.628,7.418 -21.019,13.91 -21.019,35.539 0,11.449 2.469,20.41 7.734,26.281 3.699,4.008 9.274,6.782 17.004,6.782 8.356,0 14.223,-2.774 17.942,-7.422 5.554,-6.789 6.789,-14.809 6.789,-26.559 l 26.531,0 c 0,20.09 -3.395,34.289 -14.5,45.098 -8.313,8 -20.367,12.652 -36.469,12.652 -14.523,0 -26.273,-4.652 -34.91,-12.652 -11.082,-10.199 -16.656,-25.93 -16.656,-45.098 0,-33.383 7.414,-45.742 29.926,-55.031 l 25.058,-10.18 c 17.926,-7.4098 21.637,-15.1403 21.637,-40.4802 0,-14.5195 -1.238,-22.8906 -7.106,-29.3789 -4.019,-4.3125 -9.886,-7.082 -18.875,-7.082 -8.332,0 -14.519,2.7695 -18.242,6.793 -5.863,6.1797 -7.406,14.2187 -7.406,28.7578 l -26.535,0 c 0,-23.5078 3.394,-36.1914 13.574,-46.3516 8.641,-8.63669 21.617,-13.257788 38.609,-13.257788 17.625,0 30.606,5.230468 38.938,13.257788 10.484,10.4922 13.578,25.0117 13.578,47.8516 m 138.1,-4.6016 -26.209,0 c -0.329,-9.289 -2.168,-18.8789 -7.118,-25.3672 -3.418,-4.3125 -8.976,-7.7226 -17.32,-7.7226 -8.66,0 -14.523,3.4101 -18.246,8.3515 -7.734,10.5118 -8.949,28.129 -8.949,80.3402 0,52.242 1.215,69.859 8.949,80.371 3.723,4.937 9.586,8.34 18.246,8.34 8.344,0 13.902,-3.403 17.32,-7.743 5.243,-6.488 6.789,-15.757 7.118,-25.007 l 26.209,0 c -0.3,17.91 -5.54,33.668 -15.721,43.558 -8.641,8.321 -19.481,12.942 -34.926,12.942 -17.316,0 -29.375,-6.481 -37.683,-16.039 -14.5,-16.692 -16.043,-35.52 -16.043,-96.422 0,-60.8714 1.543,-79.6995 16.043,-96.3909 C 929.578,6.48047 941.637,0 958.953,0 c 14.524,0 25.359,4.30859 33.996,12.0312 10.781,9.8672 16.351,26.25 16.651,44.7969 m 139.34,-54.36716 0,219.96906 -26.53,0 0,-96.098 -48.85,0 0,96.098 -26.53,0 0,-219.96906 26.53,0 0,100.09806 48.85,0 0,-100.09806 26.53,0 z m 130.23,0 0,23.76956 -58.41,0 0,74.8005 50.36,0 0,23.75 -50.36,0 0,73.879 58.41,0 0,23.77 -84.92,0 0,-219.96906 84.92,0 z m 210.06,0 0,219.96906 -26.5,0 0,-96.098 -48.86,0 0,96.098 -26.55,0 0,-219.96906 26.55,0 0,100.09806 48.86,0 0,-100.09806 26.5,0 z M 1636.92,112.43 c 0,60.902 -1.84,80.66 -16.03,96.422 -8.63,9.558 -20.39,16.039 -37.71,16.039 -17.29,0 -29.06,-6.481 -37.68,-16.039 -14.21,-15.762 -16.06,-35.52 -16.06,-96.422 0,-60.8714 1.85,-80.6292 16.06,-96.3909 C 1554.12,6.48047 1565.89,0 1583.18,0 c 17.32,0 29.08,6.48047 37.71,16.0391 14.19,15.7617 16.03,35.5195 16.03,96.3909 m -26.51,0 c 0,-52.2112 -1.54,-69.8284 -9.3,-80.3402 -3.7,-4.9414 -9.26,-8.3515 -17.93,-8.3515 -8.66,0 -14.52,3.4101 -18.24,8.3515 -7.71,10.5118 -8.97,28.129 -8.97,80.3402 0,52.242 1.26,69.859 8.97,80.371 3.72,4.937 9.58,8.34 18.24,8.34 8.67,0 14.23,-3.403 17.93,-8.34 7.76,-10.512 9.3,-28.129 9.3,-80.371 m 168.73,-55.6019 -26.21,0 c -0.31,-9.289 -2.19,-18.8789 -7.12,-25.3672 -3.39,-4.3125 -8.98,-7.7226 -17.32,-7.7226 -8.67,0 -14.53,3.4101 -18.25,8.3515 -7.71,10.5118 -8.95,28.129 -8.95,80.3402 0,52.242 1.24,69.859 8.95,80.371 3.72,4.937 9.58,8.34 18.25,8.34 8.34,0 13.93,-3.403 17.32,-7.743 5.27,-6.488 6.81,-15.757 7.12,-25.007 l 26.21,0 c -0.32,17.91 -5.55,33.668 -15.75,43.558 -8.63,8.321 -19.43,12.942 -34.9,12.942 -17.3,0 -29.37,-6.481 -37.71,-16.039 -14.48,-16.692 -16.03,-35.52 -16.03,-96.422 0,-60.8714 1.55,-79.6995 16.03,-96.3909 C 1699.12,6.48047 1711.19,0 1728.49,0 c 14.54,0 25.34,4.30859 33.98,12.0312 10.8,9.8672 16.35,26.25 16.67,44.7969 m 140.97,-54.36716 0,219.96906 -26.55,0 0,-96.098 -48.84,0 0,96.098 -26.53,0 0,-219.96906 26.53,0 0,100.09806 48.84,0 0,-100.09806 26.55,0 z m 143.77,58.96876 c 0,34.6211 -5.87,50.0703 -30.86,60.2813 l -24.76,10.199 c -17.59,7.418 -21.01,13.91 -21.01,35.539 0,11.449 2.48,20.41 7.73,26.281 3.72,4.008 9.27,6.782 16.98,6.782 8.36,0 14.25,-2.774 17.95,-7.422 5.57,-6.789 6.81,-14.809 6.81,-26.559 l 26.54,0 c 0,20.09 -3.41,34.289 -14.5,45.098 -8.34,8 -20.38,12.652 -36.47,12.652 -14.54,0 -26.26,-4.652 -34.93,-12.652 -11.09,-10.199 -16.66,-25.93 -16.66,-45.098 0,-33.383 7.42,-45.742 29.97,-55.031 l 25.03,-10.18 c 17.93,-7.4098 21.63,-15.1403 21.63,-40.4802 0,-14.5195 -1.24,-22.8906 -7.11,-29.3789 -4.01,-4.3125 -9.9,-7.082 -18.84,-7.082 -8.37,0 -14.55,2.7695 -18.25,6.793 -5.88,6.1797 -7.45,14.2187 -7.45,28.7578 l -26.54,0 c 0,-23.5078 3.43,-36.1914 13.58,-46.3516 8.66,-8.63669 21.63,-13.257788 38.66,-13.257788 17.6,0 30.57,5.230468 38.91,13.257788 10.49,10.4922 13.59,25.0117 13.59,47.8516 m 138.1,-4.6016 -26.25,0 c -0.27,-9.289 -2.17,-18.8789 -7.08,-25.3672 -3.41,-4.3125 -8.97,-7.7226 -17.32,-7.7226 -8.66,0 -14.54,3.4101 -18.27,8.3515 -7.71,10.5118 -8.95,28.129 -8.95,80.3402 0,52.242 1.24,69.859 8.95,80.371 3.73,4.937 9.61,8.34 18.27,8.34 8.35,0 13.91,-3.403 17.32,-7.743 5.26,-6.488 6.81,-15.757 7.08,-25.007 l 26.25,0 c -0.32,17.91 -5.57,33.668 -15.74,43.558 -8.66,8.321 -19.44,12.942 -34.91,12.942 -17.32,0 -29.37,-6.481 -37.71,-16.039 -14.5,-16.692 -16.05,-35.52 -16.05,-96.422 0,-60.8714 1.55,-79.6995 16.05,-96.3909 C 2121.96,6.48047 2134.01,0 2151.33,0 c 14.52,0 25.35,4.30859 33.96,12.0312 10.82,9.8672 16.37,26.25 16.69,44.7969 m 139.32,-54.36716 0,219.96906 -26.54,0 0,-96.098 -48.82,0 0,96.098 -26.55,0 0,-219.96906 26.55,0 0,100.09806 48.82,0 0,-100.09806 26.54,0 z m 145.87,50.01956 0,169.9495 -26.54,0 0,-171.4886 c 0,-17.293 -11.15,-27.2031 -24.43,-27.2031 -13.3,0 -24.13,9.9101 -24.13,27.2031 l 0,171.4886 -26.52,0 0,-169.9495 c 0,-16.0821 5.23,-29.0313 14.21,-37.9688 C 2409.32,4.94141 2421.99,0 2436.2,0 c 14.23,0 27.2,4.94141 36.76,14.5117 8.95,8.9375 14.21,21.8867 14.21,37.9688 m 129.18,-50.01956 0,23.76956 -58.41,0 0,196.1995 -26.52,0 0,-219.96906 84.93,0 z m 121.53,0 0,23.76956 -58.42,0 0,74.8005 50.36,0 0,23.75 -50.36,0 0,73.879 58.42,0 0,23.77 -84.91,0 0,-219.96906 84.91,0 z m 246.87,0 0,219.96906 -25.03,0 -44.16,-122.348 -44.52,122.348 -24.99,0 0,-219.96906 26.53,0 0,154.14106 34.32,-100.3715 16.37,0 34.93,102.8515 0,-156.62106 26.55,0 z m 70.72,219.96906 -26.51,0 0,-219.94953 26.51,0 0,219.94953 z m 136.84,-23.77 0,23.77 -100.38,0 0,-23.77 37.1,0 0,-196.19906 26.53,0 0,196.19906 36.75,0 z m 130.17,0 0,23.77 -100.35,0 0,-23.77 37.07,0 0,-196.19906 26.52,0 0,196.19906 36.76,0 z M 3443.9,2.46094 l 0,23.76956 -58.41,0 0,74.8005 50.38,0 0,23.75 -50.38,0 0,73.879 58.41,0 0,23.77 -84.93,0 0,-219.96906 84.93,0 z m 124.44,0 0,23.76956 -58.41,0 0,196.1995 -26.52,0 0,-219.96906 84.93,0 z m 138.54,0 0,219.96906 -26.55,0 0,-96.098 -48.85,0 0,96.098 -26.54,0 0,-219.96906 26.54,0 0,100.09806 48.85,0 0,-100.09806 26.55,0 z m 130.23,0 0,23.76956 -58.41,0 0,74.8005 50.36,0 0,23.75 -50.36,0 0,73.879 58.41,0 0,23.77 -84.95,0 0,-219.96906 84.95,0 z m 138.52,58.96876 c 0,34.6211 -5.87,50.0703 -30.87,60.2813 l -24.75,10.199 c -17.61,7.418 -21.02,13.91 -21.02,35.539 0,11.449 2.48,20.41 7.72,26.281 3.74,4.008 9.29,6.782 17.05,6.782 8.32,0 14.2,-2.774 17.9,-7.422 5.58,-6.789 6.82,-14.809 6.82,-26.559 l 26.51,0 c 0,20.09 -3.38,34.289 -14.47,45.098 -8.35,8 -20.39,12.652 -36.5,12.652 -14.52,0 -26.25,-4.652 -34.91,-12.652 -11.09,-10.199 -16.64,-25.93 -16.64,-45.098 0,-33.383 7.4,-45.742 29.93,-55.031 l 25.03,-10.18 c 17.95,-7.4098 21.67,-15.1403 21.67,-40.4802 0,-14.5195 -1.26,-22.8906 -7.12,-29.3789 -4.02,-4.3125 -9.9,-7.082 -18.85,-7.082 -8.35,0 -14.53,2.7695 -18.25,6.793 -5.89,6.1797 -7.42,14.2187 -7.42,28.7578 l -26.52,0 c 0,-23.5078 3.39,-36.1914 13.57,-46.3516 8.62,-8.63669 21.61,-13.257788 38.62,-13.257788 17.6,0 30.57,5.230468 38.92,13.257788 10.49,10.4922 13.58,25.0117 13.58,47.8516 m 140.53,0 c 0,34.6211 -5.86,50.0703 -30.85,60.2813 l -24.75,10.199 c -17.6,7.418 -21.02,13.91 -21.02,35.539 0,11.449 2.48,20.41 7.71,26.281 3.75,4.008 9.29,6.782 17.05,6.782 8.32,0 14.21,-2.774 17.91,-7.422 5.56,-6.789 6.8,-14.809 6.8,-26.559 l 26.53,0 c 0,20.09 -3.39,34.289 -14.49,45.098 -8.34,8 -20.38,12.652 -36.48,12.652 -14.52,0 -26.25,-4.652 -34.91,-12.652 -11.1,-10.199 -16.64,-25.93 -16.64,-45.098 0,-33.383 7.39,-45.742 29.94,-55.031 L 4068,101.32 c 17.93,-7.4098 21.65,-15.1403 21.65,-40.4802 0,-14.5195 -1.27,-22.8906 -7.13,-29.3789 -4.01,-4.3125 -9.9,-7.082 -18.86,-7.082 -8.34,0 -14.52,2.7695 -18.24,6.793 -5.88,6.1797 -7.42,14.2187 -7.42,28.7578 l -26.52,0 c 0,-23.5078 3.38,-36.1914 13.58,-46.3516 8.61,-8.63669 21.6,-13.257788 38.6,-13.257788 17.62,0 30.59,5.230468 38.93,13.257788 10.49,10.4922 13.57,25.0117 13.57,47.8516 m 124.77,-58.96876 0,23.76956 -58.42,0 0,74.8005 50.38,0 0,23.75 -50.38,0 0,73.879 58.42,0 0,23.77 -84.93,0 0,-219.96906 84.93,0 z m 146.99,0 0,219.96906 -26.52,0 0,-150.4612 -56.29,150.4612 -24.68,0 0,-219.96906 26.52,0 0,150.46106 56.9,-150.46106 24.07,0"
             style="fill:#4a5c66;fill-opacity:1;fill-rule:nonzero;stroke:none"
             id="path3052" />
          <path
             inkscape:connector-curvature="0"
             d="m 1087.65,451.801 24.5703,0 0,1007.95 -24.5703,0 0,-1007.95 z"
             style="fill:#4a5c66;fill-opacity:1;fill-rule:nonzero;stroke:none"
             id="path3054" />
        </g>
      </g>
    </g>
    <text
       xml:space="preserve"
       style="font-size:40px;font-style:normal;font-variant:normal;font-weight:600;font-stretch:normal;text-align:start;line-height:125%;letter-spacing:0px;word-spacing:0px;writing-mode:lr-tb;text-anchor:start;fill:#000000;fill-opacity:1;stroke:none;font-family:Latin Modern Sans Demi Cond;-inkscape-font-specification:Latin Modern Sans Demi Cond Semi-Bold"
       x="121.37891"
       y="970.578"
       id="text3198-6-8"
       sodipodi:linespacing="125%"><tspan
         sodipodi:role="line"
         id="tspan3200-0-0"
         x="121.37891"
         y="970.578"
         style="font-size:40px;font-style:normal;font-variant:normal;font-weight:normal;font-stretch:normal;text-align:start;line-height:125%;letter-spacing:-2px;writing-mode:lr-tb;text-anchor:start;fill:#80ba24;fill-opacity:1;font-family:Cantarell;-inkscape-font-specification:Cantarell"
         dx="0"
         rotate="0 0 0 0 0 0 0 0"><tspan
   style="font-size:44px;letter-spacing:-2px"
   id="tspan3909">ARS</tspan>nova<tspan
   style="font-size:40px;font-style:normal;font-variant:normal;font-weight:normal;font-stretch:normal;text-align:start;line-height:125%;letter-spacing:-2px;writing-mode:lr-tb;text-anchor:start;fill:#4a5c66;fill-opacity:1;font-family:Cantarell;-inkscape-font-specification:Cantarell"
   id="tspan3097"
   rotate="0 0 0 0 0 0 0 0"><tspan
   style="font-size:44px;letter-spacing:-2px"
   id="tspan3911">D</tspan>esktop</tspan></tspan></text>
    <rect
       style="fill:#80ba24;fill-opacity:1;stroke:none"
       id="rect3889"
       width="64.000298"
       height="63.943104"
       x="20.00017"
       y="928.42645"
       ry="4.2628741" />
    <path
       inkscape:connector-curvature="0"
       d="m 47.725807,955.61786 c 2.244046,-1.29912 6.374629,-1.29912 8.618675,0 2.244051,1.29911 2.670924,3.10141 3.447471,6.01845 0.776547,2.91705 0.77115,6.93481 0,11.17715 -0.771149,4.24227 -3.280821,13.80197 -6.248549,13.75647 -2.967725,-0.046 -0.769465,-0.046 -3.495349,0 -2.725889,0.045 -4.99857,-9.5142 -5.769719,-13.75647 -0.77115,-4.24234 -0.958594,-7.57625 0,-11.17715 0.594493,-2.23318 1.20342,-4.71934 3.447471,-6.01845 z m 0,0 c 2.244046,-1.29912 6.374629,-1.29912 8.618675,0 2.244051,1.29911 2.670924,3.10141 3.447471,6.01845 0.776547,2.91705 0.77115,6.93481 0,11.17715 -0.771149,4.24227 -3.280821,13.80197 -6.248549,13.75647 -2.967725,-0.046 -0.769465,-0.046 -3.495349,0 -2.725889,0.045 -4.99857,-9.5142 -5.769719,-13.75647 -0.77115,-4.24234 -0.958594,-7.57625 0,-11.17715 0.594493,-2.23318 1.20342,-4.71934 3.447471,-6.01845 z m 12.031064,-9.95688 c 0,4.27359 -3.472842,7.73803 -7.756806,7.73803 -4.28397,0 -7.756812,-3.46444 -7.756812,-7.73803 0,-4.27358 3.472842,-7.73801 7.756812,-7.73801 4.283964,0 7.756806,3.46443 7.756806,7.73801 z m 0,0 c 0,4.27359 -3.472842,7.73803 -7.756806,7.73803 -4.28397,0 -7.756812,-3.46444 -7.756812,-7.73803 0,-4.27358 3.472842,-7.73801 7.756812,-7.73801 4.283964,0 7.756806,3.46443 7.756806,7.73801 z m 2.065519,-8.17392 c 1.773631,1.76446 2.942406,4.7667 2.942406,8.17393 0,3.40724 -1.168775,6.40948 -2.942406,8.17391 1.108469,-2.17218 1.783043,-5.03552 1.783043,-8.17391 0,-3.13838 -0.674574,-6.00173 -1.783043,-8.17393 z m 3.536521,-1.63072 c 2.705308,2.11645 4.488043,5.71766 4.488043,9.80465 0,4.08699 -1.782735,7.68819 -4.488043,9.80464 1.690746,-2.60554 2.719666,-6.04014 2.719666,-9.80464 0,-3.76451 -1.02892,-7.1991 -2.719666,-9.80465 z m 3.445253,-1.63042 c 3.691822,2.4684 6.124645,6.66845 6.124645,11.43507 0,4.76661 -2.432823,8.96665 -6.124645,11.43506 2.307288,-3.03882 3.711416,-7.04456 3.711416,-11.43506 0,-4.39051 -1.404128,-8.39624 -3.711416,-11.43507 z m -26.62643,3.26114 c -1.773626,1.76446 -2.942406,4.7667 -2.942406,8.17393 0,3.40724 1.16878,6.40948 2.942406,8.17391 -1.10847,-2.17218 -1.783039,-5.03552 -1.783039,-8.17391 0,-3.13838 0.674569,-6.00173 1.783039,-8.17393 z m -3.536522,-1.63072 c -2.705307,2.11645 -4.488038,5.71766 -4.488038,9.80465 0,4.08699 1.782731,7.68819 4.488038,9.80464 -1.690742,-2.60554 -2.719666,-6.04014 -2.719666,-9.80464 0,-3.76451 1.028924,-7.1991 2.719666,-9.80465 z m -3.445247,-1.63042 c -3.691821,2.4684 -6.124647,6.66845 -6.124647,11.43507 0,4.76661 2.432826,8.96665 6.124647,11.43506 -2.307292,-3.03882 -3.711418,-7.04456 -3.711418,-11.43506 0,-4.39051 1.404126,-8.39624 3.711418,-11.43507 z"
       style="fill:#ffffff;fill-opacity:1;stroke:#ffffff;stroke-width:0.53268516;stroke-opacity:1"
       id="rect3058-3" />
  </g>
</svg>
