<?xml version="1.0" encoding="UTF-8" standalone="no"?>
<!-- Created with Inkscape (http://www.inkscape.org/) -->

<svg
   xmlns:dc="http://purl.org/dc/elements/1.1/"
   xmlns:cc="http://creativecommons.org/ns#"
   xmlns:rdf="http://www.w3.org/1999/02/22-rdf-syntax-ns#"
   xmlns:svg="http://www.w3.org/2000/svg"
   xmlns="http://www.w3.org/2000/svg"
   xmlns:xlink="http://www.w3.org/1999/xlink"
   xmlns:sodipodi="http://sodipodi.sourceforge.net/DTD/sodipodi-0.dtd"
   xmlns:inkscape="http://www.inkscape.org/namespaces/inkscape"
   width="256"
   height="256"
   id="svg2"
   sodipodi:version="0.32"
   inkscape:version="0.48.4 r9939"
   version="1.0"
   inkscape:export-filename="face-wink.png"
   inkscape:export-xdpi="90"
   inkscape:export-ydpi="90"
   sodipodi:docname="face-wink.svg"
   inkscape:output_extension="org.inkscape.output.svgz.inkscape">
  <defs
     id="defs4">
    <linearGradient
       inkscape:collect="always"
       id="linearGradient3881">
      <stop
         style="stop-color:#e3ad00;stop-opacity:1;"
         offset="0"
         id="stop3884" />
      <stop
         style="stop-color:#e3ad00;stop-opacity:0;"
         offset="1"
         id="stop3886" />
    </linearGradient>
    <linearGradient
       inkscape:collect="always"
       id="linearGradient4445">
      <stop
         style="stop-color:#382509;stop-opacity:1;"
         offset="0"
         id="stop4447" />
      <stop
         style="stop-color:#382509;stop-opacity:0;"
         offset="1"
         id="stop4449" />
    </linearGradient>
    <linearGradient
       inkscape:collect="always"
       id="linearGradient4412">
      <stop
         style="stop-color:#590000;stop-opacity:1;"
         offset="0"
         id="stop4414" />
      <stop
         style="stop-color:#191104;stop-opacity:1"
         offset="1"
         id="stop4416" />
    </linearGradient>
    <linearGradient
       inkscape:collect="always"
       id="linearGradient3879">
      <stop
         style="stop-color:#4d2600;stop-opacity:1"
         offset="0"
         id="stop3881" />
      <stop
         style="stop-color:#000000;stop-opacity:1"
         offset="1"
         id="stop3883" />
    </linearGradient>
    <inkscape:perspective
       sodipodi:type="inkscape:persp3d"
       inkscape:vp_x="0 : 128 : 1"
       inkscape:vp_y="0 : 1000 : 0"
       inkscape:vp_z="256 : 128 : 1"
       inkscape:persp3d-origin="128 : 85.333333 : 1"
       id="perspective54" />
    <linearGradient
       inkscape:collect="always"
       id="linearGradient3420">
      <stop
         style="stop-color:#ffffff;stop-opacity:1;"
         offset="0"
         id="stop3422" />
      <stop
         style="stop-color:#ffffff;stop-opacity:0;"
         offset="1"
         id="stop3424" />
    </linearGradient>
    <linearGradient
       inkscape:collect="always"
       id="linearGradient3350">
      <stop
         style="stop-color:#ffffff;stop-opacity:1;"
         offset="0"
         id="stop3352" />
      <stop
         style="stop-color:#ffffff;stop-opacity:0;"
         offset="1"
         id="stop3354" />
    </linearGradient>
    <linearGradient
       id="linearGradient3157">
      <stop
         style="stop-color:#fff290;stop-opacity:1"
         offset="0"
         id="stop3159" />
      <stop
         id="stop3178"
         offset="0.5999999"
         style="stop-color:#fed611;stop-opacity:1" />
      <stop
         style="stop-color:#f9c820;stop-opacity:1"
         offset="0.83999991"
         id="stop3180" />
      <stop
         id="stop3182"
         offset="0.91999996"
         style="stop-color:#f4a222;stop-opacity:1" />
      <stop
         style="stop-color:#d98b15;stop-opacity:1"
         offset="1"
         id="stop3161" />
    </linearGradient>
    <radialGradient
       inkscape:collect="always"
       xlink:href="#linearGradient3157"
       id="radialGradient3196"
       cx="70"
       cy="70"
       fx="70"
       fy="32.5"
       r="54"
       gradientUnits="userSpaceOnUse"
       gradientTransform="translate(-4.5000002e-6,-1.0137567e-6)" />
    <filter
       inkscape:collect="always"
       id="filter3255">
      <feGaussianBlur
         inkscape:collect="always"
         stdDeviation="1.1"
         id="feGaussianBlur3257" />
    </filter>
    <filter
       inkscape:collect="always"
       id="filter3282">
      <feGaussianBlur
         inkscape:collect="always"
         stdDeviation="2.16"
         id="feGaussianBlur3284" />
    </filter>
    <clipPath
       clipPathUnits="userSpaceOnUse"
       id="clipPath3327">
      <path
         transform="matrix(1.8518517,0,0,1.8518517,-1.6296136,-5.6296246)"
         d="M 124,70 A 54,54 0 1 1 16,70 A 54,54 0 1 1 124,70 z"
         sodipodi:ry="54"
         sodipodi:rx="54"
         sodipodi:cy="70"
         sodipodi:cx="70"
         id="path3329"
         style="opacity:1;fill:#ffffff;fill-opacity:1;stroke:none;stroke-width:0.80000001;stroke-linecap:round;stroke-linejoin:round;stroke-miterlimit:4;stroke-dasharray:none;stroke-opacity:1"
         sodipodi:type="arc" />
    </clipPath>
    <filter
       inkscape:collect="always"
       id="filter3338">
      <feGaussianBlur
         inkscape:collect="always"
         stdDeviation="3.1999998"
         id="feGaussianBlur3340" />
    </filter>
    <radialGradient
       inkscape:collect="always"
       xlink:href="#linearGradient3350"
       id="radialGradient3356"
       cx="128"
       cy="-2.6666651"
       fx="128"
       fy="-2.6666651"
       r="99.999999"
       gradientTransform="matrix(1.6885793,0,0,1.0131476,-88.138148,34.701725)"
       gradientUnits="userSpaceOnUse" />
    <clipPath
       clipPathUnits="userSpaceOnUse"
       id="clipPath3371">
      <path
         transform="matrix(1.851852,0,0,1.851852,-1.6296317,-5.6296427)"
         d="M 124,70 A 54,54 0 1 1 16,70 A 54,54 0 1 1 124,70 z"
         sodipodi:ry="54"
         sodipodi:rx="54"
         sodipodi:cy="70"
         sodipodi:cx="70"
         id="path3373"
         style="opacity:1;fill:#ffffff;fill-opacity:1;stroke:none;stroke-width:0.80000001;stroke-linecap:round;stroke-linejoin:round;stroke-miterlimit:4;stroke-dasharray:none;stroke-opacity:1"
         sodipodi:type="arc" />
    </clipPath>
    <filter
       inkscape:collect="always"
       id="filter3406">
      <feGaussianBlur
         inkscape:collect="always"
         stdDeviation="3.0000001"
         id="feGaussianBlur3408" />
    </filter>
    <filter
       inkscape:collect="always"
       id="filter3414">
      <feGaussianBlur
         inkscape:collect="always"
         stdDeviation="6.0000002"
         id="feGaussianBlur3416" />
    </filter>
    <radialGradient
       inkscape:collect="always"
       xlink:href="#linearGradient3420"
       id="radialGradient3426"
       cx="70"
       cy="70"
       fx="70"
       fy="70"
       r="54"
       gradientUnits="userSpaceOnUse"
       gradientTransform="matrix(1.4447581,0.1160208,-0.2610466,1.4447582,-12.859807,-39.254529)" />
    <filter
       inkscape:collect="always"
       id="filter3448"
       x="-0.31875732"
       width="1.6375146"
       y="-0.36402777"
       height="1.7280555">
      <feGaussianBlur
         inkscape:collect="always"
         stdDeviation="15.666565"
         id="feGaussianBlur3450" />
    </filter>
    <radialGradient
       inkscape:collect="always"
       xlink:href="#linearGradient3350"
       id="radialGradient3472"
       gradientUnits="userSpaceOnUse"
       gradientTransform="matrix(1.6885793,0,0,1.0131476,-88.138148,34.701725)"
       cx="128"
       cy="-2.6666651"
       fx="128"
       fy="-2.6666651"
       r="99.999999" />
    <radialGradient
       inkscape:collect="always"
       xlink:href="#linearGradient3420"
       id="radialGradient3474"
       gradientUnits="userSpaceOnUse"
       gradientTransform="matrix(1.4447581,0.1160208,-0.2610466,1.4447582,-12.859807,-39.254529)"
       cx="70"
       cy="70"
       fx="70"
       fy="70"
       r="54" />
    <filter
       inkscape:collect="always"
       id="filter4206"
       x="-0.34392491"
       width="1.6878498"
       y="-0.47348566"
       height="1.9469713">
      <feGaussianBlur
         inkscape:collect="always"
         stdDeviation="1.8002319"
         id="feGaussianBlur4208" />
    </filter>
    <filter
       inkscape:collect="always"
       id="filter4248"
       x="-0.13745129"
       width="1.2749026"
       y="-0.027490258"
       height="1.0549805">
      <feGaussianBlur
         inkscape:collect="always"
         stdDeviation="0.45817097"
         id="feGaussianBlur4250" />
    </filter>
    <linearGradient
       inkscape:collect="always"
       xlink:href="#linearGradient3420"
       id="linearGradient4280"
       gradientUnits="userSpaceOnUse"
       x1="130.10919"
       y1="116"
       x2="130.10919"
       y2="162.64206" />
    <radialGradient
       inkscape:collect="always"
       xlink:href="#linearGradient4412"
       id="radialGradient4428"
       cx="127.98151"
       cy="215.57565"
       fx="127.98151"
       fy="215.57565"
       r="64.806676"
       gradientTransform="matrix(1,0,0,0.320543,0,104.44105)"
       gradientUnits="userSpaceOnUse" />
    <filter
       inkscape:collect="always"
       id="filter4439"
       x="-0.038563796"
       width="1.0771276"
       y="-0.13509358"
       height="1.2701872">
      <feGaussianBlur
         inkscape:collect="always"
         stdDeviation="1.8320184"
         id="feGaussianBlur4441" />
    </filter>
    <radialGradient
       inkscape:collect="always"
       xlink:href="#linearGradient4445"
       id="radialGradient4451"
       cx="64"
       cy="133"
       fx="61.5"
       fy="129"
       r="7"
       gradientUnits="userSpaceOnUse" />
    <radialGradient
       inkscape:collect="always"
       xlink:href="#linearGradient4445"
       id="radialGradient4455"
       gradientUnits="userSpaceOnUse"
       cx="64"
       cy="133"
       fx="61.5"
       fy="129"
       r="7" />
    <linearGradient
       y2="255.54324"
       x2="167"
       y1="106.93966"
       x1="167"
       gradientUnits="userSpaceOnUse"
       id="linearGradient3455"
       xlink:href="#linearGradient3367"
       inkscape:collect="always" />
    <linearGradient
       gradientUnits="userSpaceOnUse"
       y2="291.31815"
       x2="167"
       y1="101"
       x1="167"
       id="linearGradient3373"
       xlink:href="#linearGradient3367"
       inkscape:collect="always" />
    <linearGradient
       y2="164"
       x2="42.519455"
       y1="164"
       x1="128"
       spreadMethod="reflect"
       gradientTransform="matrix(0.9818182,0,0,1,2.3272722,0)"
       gradientUnits="userSpaceOnUse"
       id="linearGradient3178"
       xlink:href="#linearGradient3191"
       inkscape:collect="always" />
    <linearGradient
       y2="147.1337"
       x2="137.94228"
       y1="143"
       x1="137.94228"
       gradientUnits="userSpaceOnUse"
       id="linearGradient3176"
       xlink:href="#linearGradient3413"
       inkscape:collect="always" />
    <linearGradient
       y2="164"
       x2="128.10901"
       y1="164"
       x1="71.857597"
       spreadMethod="reflect"
       gradientTransform="matrix(0.9818182,0,0,1,2.3272722,0)"
       gradientUnits="userSpaceOnUse"
       id="linearGradient3174"
       xlink:href="#linearGradient6699"
       inkscape:collect="always" />
    <radialGradient
       r="76.545456"
       fy="230.95265"
       fx="128"
       cy="166.44806"
       cx="128"
       gradientTransform="matrix(1.5831925,-1.5177422e-8,0,0.5813539,-74.648639,66.234777)"
       gradientUnits="userSpaceOnUse"
       id="radialGradient3172"
       xlink:href="#linearGradient4031"
       inkscape:collect="always" />
    <radialGradient
       r="76.545453"
       fy="181.06129"
       fx="128"
       cy="181.06129"
       cx="128"
       gradientTransform="matrix(1.0589958,3.6583493e-8,-2.4821853e-8,0.7185273,-7.551461,43.402517)"
       gradientUnits="userSpaceOnUse"
       id="radialGradient3170"
       xlink:href="#linearGradient3572"
       inkscape:collect="always" />
    <linearGradient
       id="linearGradient6699"
       inkscape:collect="always">
      <stop
         id="stop6701"
         offset="0"
         style="stop-color:#e0e0e0;stop-opacity:1" />
      <stop
         id="stop6703"
         offset="1"
         style="stop-color:#ffffff;stop-opacity:1" />
    </linearGradient>
    <linearGradient
       inkscape:collect="always"
       id="linearGradient6418">
      <stop
         style="stop-color:#eeeeee;stop-opacity:1;"
         offset="0"
         id="stop6420" />
      <stop
         style="stop-color:#ffffff;stop-opacity:1"
         offset="1"
         id="stop6422" />
    </linearGradient>
    <linearGradient
       id="linearGradient3572">
      <stop
         style="stop-color:#fffcca;stop-opacity:1"
         offset="0"
         id="stop3574" />
      <stop
         id="stop3576"
         offset="0.29983425"
         style="stop-color:#ffd81b;stop-opacity:1" />
      <stop
         style="stop-color:#f9d93b;stop-opacity:1"
         offset="0.74958563"
         id="stop3578" />
      <stop
         style="stop-color:#f49b23;stop-opacity:1"
         offset="1"
         id="stop3580" />
    </linearGradient>
    <linearGradient
       inkscape:collect="always"
       id="linearGradient5268">
      <stop
         style="stop-color:#ffffff;stop-opacity:1;"
         offset="0"
         id="stop5270" />
      <stop
         style="stop-color:#ffffff;stop-opacity:0;"
         offset="1"
         id="stop5272" />
    </linearGradient>
    <linearGradient
       inkscape:collect="always"
       id="linearGradient3874">
      <stop
         style="stop-color:#382509;stop-opacity:1;"
         offset="0"
         id="stop3876" />
      <stop
         style="stop-color:#382509;stop-opacity:0;"
         offset="1"
         id="stop3878" />
    </linearGradient>
    <linearGradient
       id="linearGradient3191">
      <stop
         style="stop-color:#fffeee;stop-opacity:1;"
         offset="0"
         id="stop3193" />
      <stop
         id="stop6709"
         offset="0.31999999"
         style="stop-color:#fffeee;stop-opacity:0.79069769;" />
      <stop
         style="stop-color:#fffeee;stop-opacity:0;"
         offset="1"
         id="stop3195" />
    </linearGradient>
    <filter
       height="1.2803089"
       y="-0.14015447"
       width="1.1576097"
       x="-0.078804836"
       id="filter3773"
       inkscape:collect="always">
      <feGaussianBlur
         id="feGaussianBlur3775"
         stdDeviation="1.0388816"
         inkscape:collect="always" />
    </filter>
    <linearGradient
       inkscape:collect="always"
       id="linearGradient3413">
      <stop
         style="stop-color:#000000;stop-opacity:1;"
         offset="0"
         id="stop3415" />
      <stop
         style="stop-color:#000000;stop-opacity:0;"
         offset="1"
         id="stop3417" />
    </linearGradient>
    <linearGradient
       id="linearGradient4031">
      <stop
         style="stop-color:#ffffff;stop-opacity:0"
         offset="0"
         id="stop4033" />
      <stop
         id="stop4037"
         offset="0.49999997"
         style="stop-color:#ffffff;stop-opacity:0;" />
      <stop
         style="stop-color:#000000;stop-opacity:1"
         offset="1"
         id="stop4035" />
    </linearGradient>
    <clipPath
       clipPathUnits="userSpaceOnUse"
       id="clipPath6612">
      <path
         id="path6614"
         d="M 128,120 C 103.40867,120 79.642872,120.62629 57.096875,121.80469 C 56.370779,125.98022 56,130.27989 56,134.66667 C 56,175.14667 88.255999,208 128,208 C 167.744,208 200.00001,175.14667 200,134.66667 C 200,130.27989 199.62922,125.98022 198.90313,121.80469 C 176.35713,120.62629 152.59133,120 128,120 z"
         style="opacity:1;fill:url(#linearGradient6616);fill-opacity:1;stroke:none;stroke-width:20;stroke-linecap:round;stroke-linejoin:round;stroke-miterlimit:4;stroke-dasharray:none;stroke-opacity:0" />
    </clipPath>
    <linearGradient
       inkscape:collect="always"
       xlink:href="#linearGradient6418"
       id="linearGradient6616"
       gradientUnits="userSpaceOnUse"
       gradientTransform="matrix(0.9818182,0,0,1,2.3272722,0)"
       spreadMethod="reflect"
       x1="71.857597"
       y1="164"
       x2="128.10901"
       y2="164" />
    <radialGradient
       r="54"
       fy="70"
       fx="70"
       cy="70"
       cx="70"
       gradientTransform="matrix(1.4447581,0.1160208,-0.2610466,1.4447582,-12.859807,-39.254529)"
       gradientUnits="userSpaceOnUse"
       id="radialGradient3548"
       xlink:href="#linearGradient3420"
       inkscape:collect="always" />
    <radialGradient
       gradientTransform="matrix(1.4447581,0.1160208,-0.2610466,1.4447582,-12.859807,-39.254529)"
       gradientUnits="userSpaceOnUse"
       r="54"
       fy="70"
       fx="70"
       cy="70"
       cx="70"
       id="radialGradient3542"
       xlink:href="#linearGradient3420"
       inkscape:collect="always" />
    <clipPath
       id="clipPath3530"
       clipPathUnits="userSpaceOnUse">
      <path
         sodipodi:type="arc"
         style="opacity:1;fill:#ffffff;fill-opacity:1;stroke:none;stroke-width:0.80000001;stroke-linecap:round;stroke-linejoin:round;stroke-miterlimit:4;stroke-dasharray:none;stroke-opacity:1"
         id="path3532"
         sodipodi:cx="70"
         sodipodi:cy="70"
         sodipodi:rx="54"
         sodipodi:ry="54"
         d="M 124,70 A 54,54 0 1 1 16,70 A 54,54 0 1 1 124,70 z"
         transform="matrix(1.851852,0,0,1.851852,-1.6296317,-5.6296427)" />
    </clipPath>
    <radialGradient
       gradientUnits="userSpaceOnUse"
       gradientTransform="matrix(1.6885793,0,0,1.0131476,-88.138148,34.701725)"
       r="99.999999"
       fy="-2.6666651"
       fx="128"
       cy="-2.6666651"
       cx="128"
       id="radialGradient3528"
       xlink:href="#linearGradient3350"
       inkscape:collect="always" />
    <clipPath
       id="clipPath3520"
       clipPathUnits="userSpaceOnUse">
      <path
         sodipodi:type="arc"
         style="opacity:1;fill:#ffffff;fill-opacity:1;stroke:none;stroke-width:0.80000001;stroke-linecap:round;stroke-linejoin:round;stroke-miterlimit:4;stroke-dasharray:none;stroke-opacity:1"
         id="path3522"
         sodipodi:cx="70"
         sodipodi:cy="70"
         sodipodi:rx="54"
         sodipodi:ry="54"
         d="M 124,70 A 54,54 0 1 1 16,70 A 54,54 0 1 1 124,70 z"
         transform="matrix(1.8518517,0,0,1.8518517,-1.6296136,-5.6296246)" />
    </clipPath>
    <radialGradient
       gradientTransform="translate(-4.5000002e-6,-1.0137567e-6)"
       gradientUnits="userSpaceOnUse"
       r="54"
       fy="32.5"
       fx="70"
       cy="70"
       cx="70"
       id="radialGradient3510"
       xlink:href="#linearGradient3157"
       inkscape:collect="always" />
    <linearGradient
       id="linearGradient3498">
      <stop
         id="stop3500"
         offset="0"
         style="stop-color:#fff290;stop-opacity:1" />
      <stop
         style="stop-color:#fed611;stop-opacity:1"
         offset="0.5999999"
         id="stop3502" />
      <stop
         id="stop3504"
         offset="0.83999991"
         style="stop-color:#f9c820;stop-opacity:1" />
      <stop
         style="stop-color:#f4a222;stop-opacity:1"
         offset="0.91999996"
         id="stop3506" />
      <stop
         id="stop3508"
         offset="1"
         style="stop-color:#d98b15;stop-opacity:1" />
    </linearGradient>
    <inkscape:perspective
       id="perspective128"
       inkscape:persp3d-origin="128 : 85.333333 : 1"
       inkscape:vp_z="256 : 128 : 1"
       inkscape:vp_y="0 : 1000 : 0"
       inkscape:vp_x="0 : 128 : 1"
       sodipodi:type="inkscape:persp3d" />
    <linearGradient
       id="linearGradient3367"
       inkscape:collect="always">
      <stop
         id="stop3369"
         offset="0"
         style="stop-color:#000000;stop-opacity:1;" />
      <stop
         id="stop3371"
         offset="1"
         style="stop-color:#000000;stop-opacity:0;" />
    </linearGradient>
    <radialGradient
       inkscape:collect="always"
       xlink:href="#linearGradient3350"
       id="radialGradient3659"
       gradientUnits="userSpaceOnUse"
       gradientTransform="matrix(1.6885793,0,0,1.0131476,-88.138148,34.701725)"
       cx="128"
       cy="-2.6666651"
       fx="128"
       fy="-2.6666651"
       r="99.999999" />
    <linearGradient
       inkscape:collect="always"
       xlink:href="#linearGradient3367"
       id="linearGradient3727"
       gradientUnits="userSpaceOnUse"
       x1="167"
       y1="106.93966"
       x2="167"
       y2="255.54324" />
    <radialGradient
       inkscape:collect="always"
       xlink:href="#linearGradient3350"
       id="radialGradient3775"
       gradientUnits="userSpaceOnUse"
       gradientTransform="matrix(1.6885793,0,0,1.0131476,-88.138148,34.701725)"
       cx="128"
       cy="-2.6666651"
       fx="128"
       fy="-2.6666651"
       r="99.999999" />
    <radialGradient
       inkscape:collect="always"
       xlink:href="#linearGradient3879"
       id="radialGradient3808"
       gradientUnits="userSpaceOnUse"
       gradientTransform="matrix(1.1990521,0,0,5,-26.274882,-544)"
       cx="132"
       cy="136"
       fx="132"
       fy="133.37546"
       r="4" />
    <linearGradient
       inkscape:collect="always"
       xlink:href="#linearGradient3420"
       id="linearGradient3810"
       gradientUnits="userSpaceOnUse"
       x1="130.10919"
       y1="116"
       x2="130.10919"
       y2="162.64206" />
    <filter
       inkscape:collect="always"
       id="filter3856">
      <feGaussianBlur
         inkscape:collect="always"
         stdDeviation="0.41019827"
         id="feGaussianBlur3858" />
    </filter>
    <radialGradient
       inkscape:collect="always"
       xlink:href="#linearGradient3879"
       id="radialGradient3867"
       gradientUnits="userSpaceOnUse"
       gradientTransform="matrix(1.9774429,0,0,1.1118594,-107.58639,-330.31424)"
       cx="107"
       cy="379.28278"
       fx="107"
       fy="379.28278"
       r="8.0000096" />
    <radialGradient
       inkscape:collect="always"
       xlink:href="#linearGradient3874"
       id="radialGradient3871"
       gradientUnits="userSpaceOnUse"
       gradientTransform="matrix(1.9024825,0,0,1.1757985,-95.572162,-14.860661)"
       cx="105.89919"
       cy="96.836876"
       fx="105.89919"
       fy="89.717529"
       r="8.8991871" />
    <radialGradient
       inkscape:collect="always"
       xlink:href="#linearGradient5268"
       id="radialGradient3875"
       cx="104.5"
       cy="87.49543"
       fx="104.5"
       fy="87.49543"
       r="4.75"
       gradientTransform="matrix(1.0941255,-2.9505534e-7,1.881948e-7,0.6978648,-9.8361314,27.502555)"
       gradientUnits="userSpaceOnUse" />
    <radialGradient
       inkscape:collect="always"
       xlink:href="#linearGradient3881"
       id="radialGradient3888"
       cx="104.5"
       cy="89.8125"
       fx="104.5"
       fy="87.844604"
       r="3.75"
       gradientTransform="matrix(1,0,0,0.4166667,0,52.390625)"
       gradientUnits="userSpaceOnUse" />
    <radialGradient
       inkscape:collect="always"
       xlink:href="#linearGradient4412"
       id="radialGradient4885"
       gradientUnits="userSpaceOnUse"
       gradientTransform="matrix(0.9976363,0.06871355,-0.02202565,0.31978533,2.0657595,95.741696)"
       cx="127.98151"
       cy="215.57565"
       fx="127.98151"
       fy="215.57565"
       r="64.806676" />
    <radialGradient
       inkscape:collect="always"
       xlink:href="#linearGradient3157"
       id="radialGradient4925"
       gradientUnits="userSpaceOnUse"
       gradientTransform="translate(-4.5000002e-6,-1.0137567e-6)"
       cx="70"
       cy="70"
       fx="70"
       fy="32.5"
       r="54" />
    <radialGradient
       inkscape:collect="always"
       xlink:href="#linearGradient3879"
       id="radialGradient4927"
       gradientUnits="userSpaceOnUse"
       gradientTransform="matrix(1.1990521,0,0,5,-26.274882,-544)"
       cx="132"
       cy="136"
       fx="132"
       fy="133.37546"
       r="4" />
    <linearGradient
       inkscape:collect="always"
       xlink:href="#linearGradient3420"
       id="linearGradient4929"
       gradientUnits="userSpaceOnUse"
       x1="130.10919"
       y1="116"
       x2="130.10919"
       y2="162.64206" />
    <radialGradient
       inkscape:collect="always"
       xlink:href="#linearGradient4412"
       id="radialGradient4931"
       gradientUnits="userSpaceOnUse"
       gradientTransform="matrix(0.9976363,0.06871355,-0.02202565,0.31978533,2.0657595,95.741696)"
       cx="127.98151"
       cy="215.57565"
       fx="127.98151"
       fy="215.57565"
       r="64.806676" />
    <radialGradient
       inkscape:collect="always"
       xlink:href="#linearGradient4445"
       id="radialGradient4933"
       gradientUnits="userSpaceOnUse"
       cx="64"
       cy="133"
       fx="61.5"
       fy="129"
       r="7" />
    <radialGradient
       inkscape:collect="always"
       xlink:href="#linearGradient4445"
       id="radialGradient4935"
       gradientUnits="userSpaceOnUse"
       cx="64"
       cy="133"
       fx="61.5"
       fy="129"
       r="7" />
    <radialGradient
       inkscape:collect="always"
       xlink:href="#linearGradient3881"
       id="radialGradient4937"
       gradientUnits="userSpaceOnUse"
       gradientTransform="matrix(1,0,0,0.4166667,0,52.390625)"
       cx="104.5"
       cy="89.8125"
       fx="104.5"
       fy="87.844604"
       r="3.75" />
    <radialGradient
       inkscape:collect="always"
       xlink:href="#linearGradient3879"
       id="radialGradient4939"
       gradientUnits="userSpaceOnUse"
       gradientTransform="matrix(1.9774429,0,0,1.1118594,-107.58639,-330.31424)"
       cx="107"
       cy="379.28278"
       fx="107"
       fy="379.28278"
       r="8.0000096" />
    <radialGradient
       inkscape:collect="always"
       xlink:href="#linearGradient3874"
       id="radialGradient4941"
       gradientUnits="userSpaceOnUse"
       gradientTransform="matrix(1.9024825,0,0,1.1757985,-95.572162,-14.860661)"
       cx="105.89919"
       cy="96.836876"
       fx="105.89919"
       fy="89.717529"
       r="8.8991871" />
    <radialGradient
       inkscape:collect="always"
       xlink:href="#linearGradient5268"
       id="radialGradient4943"
       gradientUnits="userSpaceOnUse"
       gradientTransform="matrix(1.0941255,-2.9505534e-7,1.881948e-7,0.6978648,-9.8361314,27.502555)"
       cx="104.5"
       cy="87.49543"
       fx="104.5"
       fy="87.49543"
       r="4.75" />
  </defs>
  <sodipodi:namedview
     id="base"
     pagecolor="#ffffff"
     bordercolor="#666666"
     borderopacity="1.0"
     gridtolerance="10000"
     guidetolerance="10"
     objecttolerance="10"
     inkscape:pageopacity="0.0"
     inkscape:pageshadow="2"
     inkscape:zoom="1"
     inkscape:cx="-56"
     inkscape:cy="128"
     inkscape:document-units="px"
     inkscape:current-layer="layer1"
     showgrid="false"
     inkscape:snap-bbox="true"
     inkscape:window-width="802"
     inkscape:window-height="732"
     inkscape:window-x="0"
     inkscape:window-y="0"
     showborder="true"
     inkscape:window-maximized="0">
    <inkscape:grid
       type="xygrid"
       id="grid2383"
       visible="true"
       enabled="true"
       empspacing="4"
       spacingx="4px"
       spacingy="4px" />
  </sodipodi:namedview>
  <metadata
     id="metadata7">
    <rdf:RDF>
      <cc:Work
         rdf:about="">
        <dc:format>image/svg+xml</dc:format>
        <dc:type
           rdf:resource="http://purl.org/dc/dcmitype/StillImage" />
      </cc:Work>
    </rdf:RDF>
  </metadata>
  <g
     inkscape:label="Layer 1"
     inkscape:groupmode="layer"
     id="layer1">
    <g
       id="g4903"
       transform="matrix(0.8660254,0.5,-0.5,0.8660254,79.148747,-47.387154)">
      <path
         sodipodi:type="arc"
         style="fill:#000000;fill-opacity:1;stroke:none;filter:url(#filter3255)"
         id="path3245"
         sodipodi:cx="70"
         sodipodi:cy="70"
         sodipodi:rx="54"
         sodipodi:ry="54"
         d="M 124,70 C 124,99.823376 99.823376,124 70,124 40.176624,124 16,99.823376 16,70 16,40.176624 40.176624,16 70,16 c 29.823376,0 54,24.176624 54,54 z"
         transform="matrix(1.9673186,0,0,1.9673186,-9.7123014,-10.072502)" />
      <path
         sodipodi:type="arc"
         style="fill:#ffbf00;fill-opacity:1;stroke:none;filter:url(#filter3282)"
         id="path3276"
         sodipodi:cx="70"
         sodipodi:cy="70"
         sodipodi:rx="54"
         sodipodi:ry="54"
         d="M 124,70 C 124,99.823376 99.823376,124 70,124 40.176624,124 16,99.823376 16,70 16,40.176624 40.176624,16 70,16 c 29.823376,0 54,24.176624 54,54 z"
         transform="matrix(1.9999999,0,0,1.9999999,-11.999986,-15.999997)" />
      <path
         transform="matrix(1.9999999,0,0,1.9999999,-11.999993,-15.999998)"
         d="M 124,70 C 124,99.823376 99.823376,124 70,124 40.176624,124 16,99.823376 16,70 16,40.176624 40.176624,16 70,16 c 29.823376,0 54,24.176624 54,54 z"
         sodipodi:ry="54"
         sodipodi:rx="54"
         sodipodi:cy="70"
         sodipodi:cx="70"
         id="path2385"
         style="fill:url(#radialGradient4925);fill-opacity:1;stroke:none"
         sodipodi:type="arc" />
      <g
         id="use3095"
         transform="matrix(1.125,0,0,1.1666667,34,-18.66667)">
        <path
           sodipodi:type="arc"
           style="fill:#ffffff;fill-opacity:1;stroke:none;filter:url(#filter4248)"
           id="path3798"
           sodipodi:cx="132"
           sodipodi:cy="136"
           sodipodi:rx="4"
           sodipodi:ry="20"
           d="m 136,136 c 0,11.04569 -1.79086,20 -4,20 -2.20914,0 -4,-8.95431 -4,-20 0,-11.04569 1.79086,-20 4,-20 2.20914,0 4,8.95431 4,20 z"
           transform="matrix(1.9975231,0,0,0.6769804,-159.67303,10.073531)" />
        <path
           transform="matrix(2.1137441,0,0,0.6341232,-175.01422,12.044958)"
           d="m 136,136 c 0,11.04569 -1.79086,20 -4,20 -2.20914,0 -4,-8.95431 -4,-20 0,-11.04569 1.79086,-20 4,-20 2.20914,0 4,8.95431 4,20 z"
           sodipodi:ry="20"
           sodipodi:rx="4"
           sodipodi:cy="136"
           sodipodi:cx="132"
           id="path3800"
           style="fill:#000000;fill-opacity:1;stroke:none;filter:url(#filter4248)"
           sodipodi:type="arc" />
        <path
           sodipodi:type="arc"
           style="fill:url(#radialGradient4927);fill-opacity:1;stroke:none"
           id="path3802"
           sodipodi:cx="132"
           sodipodi:cy="136"
           sodipodi:rx="4"
           sodipodi:ry="20"
           d="m 136,136 c 0,11.04569 -1.79086,20 -4,20 -2.20914,0 -4,-8.95431 -4,-20 0,-11.04569 1.79086,-20 4,-20 2.20914,0 4,8.95431 4,20 z"
           transform="matrix(2,0,0,0.6,-160,18.4)" />
        <path
           transform="matrix(0.9017904,0,0,0.2161928,-15.036338,63.459555)"
           d="m 136,136 c 0,11.04569 -1.79086,20 -4,20 -2.20914,0 -4,-8.95431 -4,-20 0,-11.04569 1.79086,-20 4,-20 2.20914,0 4,8.95431 4,20 z"
           sodipodi:ry="20"
           sodipodi:rx="4"
           sodipodi:cy="136"
           sodipodi:cx="132"
           id="path3804"
           style="fill:url(#linearGradient4929);fill-opacity:1;stroke:none"
           sodipodi:type="arc" />
        <path
           style="opacity:0.67460315;fill:#ffd500;fill-opacity:1;stroke:none;filter:url(#filter4206)"
           d="M 98.71875,99.875 C 98.947567,104.97167 101.66572,109 105,109 c 3.33428,0 6.05243,-4.02833 6.28125,-9.125 C 110.1419,102.30607 107.76547,104 105,104 c -2.76547,0 -5.141902,-1.69393 -6.28125,-4.125 z"
           transform="matrix(0.7431694,0,0,0.5048923,25.967215,54.823876)"
           id="path3806"
           inkscape:connector-curvature="0" />
      </g>
      <path
         style="fill:#ffffff;fill-opacity:1;stroke:none;filter:url(#filter4439)"
         d="m 72.194767,143.49906 c -0.442139,0.0296 -0.838029,0.25498 -1.053826,0.59991 -0.215797,0.34494 -0.222653,0.76333 -0.01825,1.11373 l 0.384848,0.68545 0.08247,0.1224 c 14.977983,26.41895 51.656311,36.33981 80.268371,25.9983 13.84029,-4.77877 25.98648,-14.10919 32.87705,-26.63479 0.0383,-0.0696 0.0995,-0.12604 0.13744,-0.19585 0.27138,-0.53799 0.053,-1.17177 -0.51058,-1.48157 -0.56354,-0.3098 -1.29763,-0.19962 -1.71604,0.25755 -19.43377,22.22536 -54.5123,27.67078 -82.2476,17.94421 -10.420807,-3.76378 -20.063841,-9.67788 -27.049334,-17.94421 -0.270613,-0.32022 -0.705815,-0.49555 -1.154546,-0.46513 z"
         id="path4435"
         sodipodi:nodetypes="csccccsssccsc"
         transform="matrix(0.98013616,0.0675082,-0.07082478,1.0282888,11.784919,-12.696726)"
         inkscape:connector-curvature="0" />
      <path
         sodipodi:nodetypes="csccccsssccsc"
         id="path4406"
         d="m 64.58198,127.67182 c -0.504038,0.003 -0.972794,0.25925 -1.247791,0.68167 -0.274997,0.42243 -0.319472,0.95472 -0.118391,1.41692 l 0.376341,0.90299 0.08279,0.16232 c 14.669567,34.81477 55.397151,50.31416 88.753881,39.37917 16.11578,-5.00468 30.70949,-15.93825 39.62292,-31.35146 0.0495,-0.0857 0.12388,-0.15274 0.17306,-0.23868 0.35497,-0.66394 0.16284,-1.48814 -0.4491,-1.92668 -0.61196,-0.43855 -1.45418,-0.35558 -1.9688,0.19394 -23.9898,26.78614 -64.25086,30.9808 -94.852967,16.42739 -11.48836,-5.60722 -21.906006,-13.89213 -29.103346,-24.96504 -0.27882,-0.42895 -0.757015,-0.68622 -1.268599,-0.68254 z"
         style="fill:url(#radialGradient4931);fill-opacity:1;stroke:none"
         inkscape:connector-curvature="0" />
      <path
         sodipodi:type="arc"
         style="fill:url(#radialGradient4933);fill-opacity:1;stroke:none"
         id="path4443"
         sodipodi:cx="64"
         sodipodi:cy="133"
         sodipodi:rx="7"
         sodipodi:ry="7"
         d="m 71,133 c 0,3.86599 -3.134007,7 -7,7 -3.865993,0 -7,-3.13401 -7,-7 0,-3.86599 3.134007,-7 7,-7 3.865993,0 7,3.13401 7,7 z"
         transform="matrix(0.81948699,0.05644327,-0.05644327,0.81948699,20.173039,17.35961)" />
      <path
         transform="matrix(-0.81948699,-0.05644327,-0.05644327,0.81948699,249.77191,33.173543)"
         d="m 71,133 c 0,3.86599 -3.134007,7 -7,7 -3.865993,0 -7,-3.13401 -7,-7 0,-3.86599 3.134007,-7 7,-7 3.865993,0 7,3.13401 7,7 z"
         sodipodi:ry="7"
         sodipodi:rx="7"
         sodipodi:cy="133"
         sodipodi:cx="64"
         id="path4453"
         style="fill:url(#radialGradient4935);fill-opacity:1;stroke:none"
         sodipodi:type="arc" />
      <g
         transform="translate(0.12281,2.216436)"
         id="g3860">
        <path
           transform="matrix(2.5845681,0,0,3.4745309,-165.80317,-213.22178)"
           d="m 108.25,89.8125 c 0,0.862945 -1.67893,1.5625 -3.75,1.5625 -2.07107,0 -3.75,-0.699555 -3.75,-1.5625 0,-0.862945 1.67893,-1.5625 3.75,-1.5625 2.07107,0 3.75,0.699555 3.75,1.5625 z"
           sodipodi:ry="1.5625"
           sodipodi:rx="3.75"
           sodipodi:cy="89.8125"
           sodipodi:cx="104.5"
           id="path3877"
           style="opacity:0.45147681;fill:url(#radialGradient4937);fill-opacity:1;stroke:none"
           sodipodi:type="arc" />
        <path
           transform="matrix(1,0,0,1.028106,0,-2.8468544)"
           id="path3812"
           d="m 104,83.5 c -8.732388,0 -15.819543,7.153297 -15.819543,15.98064 0,0.60422 -0.0029,1.22225 0.06179,1.80913 C 89.109867,94.898497 95.855961,89.93246 104,89.93246 c 8.14405,-1.6e-5 14.89013,4.966052 15.75774,11.35731 0.0647,-0.58688 0.0618,-1.20491 0.0618,-1.80913 C 119.81954,90.653314 112.73238,83.499984 104,83.5 z"
           style="fill:#000000;fill-opacity:1;stroke:none;filter:url(#filter3856)"
           inkscape:connector-curvature="0" />
        <path
           id="path3716"
           d="m 104,87.5 c -8.732388,0 -15.819543,7.153297 -15.819543,15.98064 0,0.60422 -0.0029,1.22225 0.06179,1.80913 C 89.109867,98.898497 95.855961,93.93246 104,93.93246 c 8.14405,-1.6e-5 14.89013,4.966052 15.75774,11.35731 0.0647,-0.58688 0.0618,-1.20491 0.0618,-1.80913 C 119.81954,94.653314 112.73238,87.499984 104,87.5 z"
           style="fill:#ffffff;fill-opacity:1;stroke:none;filter:url(#filter3773)"
           transform="matrix(0.966592,0,0,0.8875759,3.4744385,10.337114)"
           inkscape:connector-curvature="0" />
        <path
           style="fill:url(#radialGradient4939);fill-opacity:1;stroke:none"
           d="m 104,85 c -8.732388,0 -15.819543,7.153297 -15.819543,15.98064 0,0.60422 -0.0029,1.22225 0.06179,1.80913 C 89.109867,96.398497 95.855961,91.43246 104,91.43246 c 8.14405,-1.6e-5 14.89013,4.966052 15.75774,11.35731 0.0647,-0.58688 0.0618,-1.20491 0.0618,-1.80913 C 119.81954,92.153314 112.73238,84.999984 104,85 z"
           id="path2927"
           inkscape:connector-curvature="0" />
        <path
           transform="translate(-1.9999993,-3.9999994)"
           d="m 114.79838,102.5 c 0,3.03757 -3.9843,5.5 -8.89919,5.5 -4.91488,0 -8.899184,-2.46243 -8.899184,-5.5 0,-3.037566 3.984304,-5.5 8.899184,-5.5 4.91489,0 8.89919,2.462434 8.89919,5.5 z"
           sodipodi:ry="5.5"
           sodipodi:rx="8.8991871"
           sodipodi:cy="102.5"
           sodipodi:cx="105.89919"
           id="path3777"
           style="opacity:0.04954954;fill:url(#radialGradient4941);fill-opacity:1;stroke:none"
           sodipodi:type="arc" />
        <path
           sodipodi:type="arc"
           style="fill:url(#radialGradient4943);fill-opacity:1;stroke:none"
           id="path3873"
           sodipodi:cx="104.5"
           sodipodi:cy="89.8125"
           sodipodi:rx="3.75"
           sodipodi:ry="1.5625"
           d="m 108.25,89.8125 c 0,0.862945 -1.67893,1.5625 -3.75,1.5625 -2.07107,0 -3.75,-0.699555 -3.75,-1.5625 0,-0.862945 1.67893,-1.5625 3.75,-1.5625 2.07107,0 3.75,0.699555 3.75,1.5625 z"
           transform="matrix(1.3907154,0,0,1.3907154,-41.452572,-37.697072)" />
      </g>
    </g>
  </g>
</svg>
